<?xml version="1.0" standalone="no"?>
<!DOCTYPE svg PUBLIC "-//W3C//DTD SVG 20010904//EN"
 "http://www.w3.org/TR/2001/REC-SVG-20010904/DTD/svg10.dtd">
<svg version="1.0" xmlns="http://www.w3.org/2000/svg"
 width="640.000000pt" height="640.000000pt" viewBox="0 0 640.000000 640.000000"
 preserveAspectRatio="xMidYMid meet">
<metadata>
Created by potrace 1.11, written by Peter Selinger 2001-2013
</metadata>
<g transform="translate(0.000000,640.000000) scale(0.100000,-0.100000)"
fill="#000000" stroke="none">
<path d="M0 6365 c0 -27 4 -35 18 -35 16 -1 16 -1 0 -14 -14 -10 -18 -28 -18
-84 0 -40 5 -74 11 -78 6 -3 9 -15 6 -25 -3 -10 0 -20 7 -23 6 -2 3 -5 -6 -5
-17 -1 -18 -26 -17 -393 0 -216 4 -385 8 -375 4 10 11 18 16 18 6 -1 14 14 18
31 5 18 13 36 18 39 8 5 15 30 18 72 1 5 5 5 11 2 17 -10 20 35 17 227 -1 137
-5 188 -14 188 -6 0 -15 5 -18 10 -4 6 -1 9 7 8 9 -2 14 14 16 60 3 66 2 68
-30 51 -16 -9 -19 -8 -16 3 3 7 14 14 25 16 16 2 20 11 21 50 0 26 -3 52 -8
57 -4 6 -4 35 0 65 4 30 4 62 -1 70 -6 11 -9 9 -10 -10 -1 -14 -1 -28 0 -32 0
-5 -3 -8 -9 -8 -15 0 -12 47 5 64 8 8 15 32 15 53 0 21 -4 33 -8 26 -5 -8 -13
-9 -22 -3 -8 6 -25 10 -37 10 -20 0 -23 -5 -23 -35z m67 -247 c-3 -8 -6 -5 -6
6 -1 11 2 17 5 13 3 -3 4 -12 1 -19z m-21 -426 c-22 -5 -30 3 -21 18 5 8 11 7
22 -2 15 -12 14 -13 -1 -16z m29 -52 c3 -5 1 -10 -4 -10 -6 0 -11 5 -11 10 0
6 2 10 4 10 3 0 8 -4 11 -10z m22 -122 c-3 -7 -5 -2 -5 12 0 14 2 19 5 13 2
-7 2 -19 0 -25z m-70 -30 c-3 -8 -6 -5 -6 6 -1 11 2 17 5 13 3 -3 4 -12 1 -19z"/>
<path d="M204 6295 c0 -60 1 -84 3 -52 2 32 2 81 0 110 -2 29 -3 3 -3 -58z"/>
<path d="M243 5953 c4 -247 11 -556 16 -688 6 -132 13 -429 16 -660 4 -231 11
-508 16 -615 4 -107 13 -456 19 -775 5 -319 14 -725 20 -902 12 -400 12 -698
-2 -633 -5 25 -12 98 -15 163 -5 112 -6 117 -20 90 -8 -15 -13 -45 -11 -66 2
-20 0 -37 -4 -37 -4 0 -7 46 -7 101 0 56 -3 104 -7 108 -3 3 -4 -96 -1 -220
l5 -226 -91 -94 c-51 -52 -107 -111 -124 -132 -18 -21 -33 -34 -33 -29 0 9 47
83 59 92 20 15 72 111 65 121 -4 7 -3 9 3 6 6 -4 19 5 29 20 19 30 36 103 24
103 -5 0 -9 53 -9 118 -3 291 -9 395 -23 403 -10 6 -10 9 0 9 8 0 12 22 12 74
0 70 -13 108 -23 69 -3 -10 -4 -3 -3 15 2 17 6 35 11 40 5 4 5 1 1 -5 -4 -7
-2 -13 3 -13 7 0 11 29 11 75 0 75 -5 86 -28 63 -9 -9 -12 -9 -12 0 0 7 4 12
9 12 13 0 32 52 29 83 -3 39 -33 45 -64 12 -13 -14 -24 -22 -24 -17 0 16 53
63 66 58 14 -6 28 39 17 57 -4 7 -6 21 -4 31 2 14 -2 17 -13 13 -18 -7 -22 17
-9 50 6 15 9 13 14 -12 l7 -30 1 35 c0 19 -4 42 -9 50 -8 13 -10 13 -10 -2 0
-23 -19 -33 -26 -13 -4 10 2 24 15 36 12 11 21 15 21 8 0 -7 3 -10 6 -7 3 4
-2 20 -11 38 -15 30 -15 33 1 44 16 12 16 13 -2 20 -11 4 -20 3 -22 -3 -2 -6
-11 -11 -20 -11 -14 1 -14 3 3 15 39 28 45 36 44 58 0 12 -3 16 -6 10 -8 -21
-33 -15 -33 8 0 15 5 19 19 14 17 -5 18 -1 15 41 -1 26 2 57 8 68 10 20 10 20
-8 5 -31 -26 -115 -69 -133 -68 -9 0 -3 5 12 11 26 9 27 11 10 25 -17 14 -17
14 1 5 13 -7 28 -6 43 1 21 9 22 11 5 24 -16 14 -16 14 1 9 9 -3 17 -1 17 4 0
6 5 10 11 10 5 0 8 -4 4 -9 -3 -5 -1 -12 5 -16 5 -3 10 3 10 14 0 11 4 23 10
26 5 3 10 14 10 23 0 10 -3 13 -8 7 -11 -16 -53 -37 -60 -30 -4 3 0 10 8 15 8
5 11 12 7 16 -4 4 3 12 15 18 33 17 44 41 30 68 -10 20 -12 21 -11 3 1 -11 1
-26 0 -32 -1 -15 -51 -18 -51 -3 0 6 4 10 9 10 5 0 11 9 14 20 3 11 16 24 29
29 22 9 22 10 -7 11 -28 1 -29 2 -8 10 13 5 23 12 23 15 0 4 -5 3 -10 0 -6 -3
-15 -3 -20 0 -15 9 9 37 27 31 7 -3 13 -1 13 5 0 11 -33 9 -70 -3 -8 -3 -12
-3 -7 -1 4 3 7 9 7 14 0 6 -5 7 -10 4 -6 -3 -10 1 -10 9 0 9 18 24 40 33 43
19 52 33 20 33 -11 0 -20 5 -20 10 0 6 5 9 12 8 7 -2 13 7 14 18 0 12 4 26 8
32 9 16 -5 72 -19 72 -8 0 -10 9 -7 25 2 14 8 22 13 19 5 -3 9 5 9 16 0 17 -4
21 -17 15 -56 -23 -105 -36 -110 -31 -4 3 1 6 11 6 9 0 14 5 11 10 -4 6 8 10
29 10 19 0 38 5 42 11 4 8 0 9 -15 4 -16 -5 -20 -3 -15 9 6 16 32 29 44 21 4
-3 10 5 13 16 4 13 1 19 -6 16 -7 -2 -38 -13 -69 -23 l-58 -18 0 -48 c0 -42 3
-48 20 -48 11 0 23 -7 27 -16 7 -18 -15 -36 -34 -29 -8 3 -12 -7 -11 -29 1
-27 5 -32 19 -29 10 3 20 15 22 27 4 17 5 17 6 -5 1 -20 -5 -28 -22 -33 -23
-5 -24 -9 -26 -127 -1 -91 2 -124 11 -131 10 -6 10 -8 1 -8 -8 0 -13 -14 -13
-35 0 -24 5 -35 15 -35 19 0 20 -39 1 -46 -20 -8 -19 -112 1 -123 13 -7 13 -9
-1 -14 -11 -5 -16 -19 -16 -48 0 -36 2 -40 15 -29 13 11 14 10 9 -4 -3 -9 -9
-16 -13 -16 -4 0 -8 -45 -9 -100 -2 -55 0 -100 3 -100 18 0 45 22 39 32 -4 7
-2 8 5 4 15 -10 -2 -32 -29 -41 -18 -6 -19 -22 -18 -313 1 -169 5 -401 10
-516 6 -145 6 -212 -1 -219 -14 -14 -14 -30 -1 -22 6 3 10 2 10 -4 0 -5 -6
-12 -12 -14 -10 -4 -10 -6 0 -6 13 -1 18 -161 5 -161 -5 0 -9 -16 -10 -35 -2
-19 1 -35 6 -35 13 0 21 -27 14 -46 -5 -13 -7 -13 -14 -2 -5 7 -9 -273 -8
-629 0 -398 3 -643 9 -643 6 0 15 9 22 20 7 11 20 20 29 20 23 0 30 10 19 31
-7 12 -6 22 5 33 8 8 15 19 15 25 0 6 10 11 23 11 22 1 22 1 -3 15 -25 14 -25
14 -2 15 12 0 22 5 22 10 0 6 -9 10 -20 10 -11 0 -20 5 -20 10 0 6 5 10 10 10
6 0 10 9 10 20 0 13 5 18 15 14 9 -4 15 0 15 9 0 9 4 19 10 22 6 4 7 -1 3 -11
-5 -13 -3 -16 10 -11 9 3 17 2 17 -3 0 -6 -4 -11 -10 -11 -5 -1 -14 -3 -20 -4
-5 -1 -14 -3 -19 -4 -5 0 -11 -7 -14 -15 -10 -25 30 -25 78 -1 25 13 54 26 63
28 9 2 -3 3 -28 1 -25 -2 -38 -1 -30 3 8 3 17 9 20 13 3 4 27 4 53 0 48 -7 48
-7 29 13 -14 14 -34 19 -71 20 -47 1 -51 3 -56 29 -4 15 -4 32 -1 37 4 5 0 12
-6 14 -7 3 -3 6 10 6 12 1 22 6 22 12 0 6 8 9 18 7 15 -4 18 -1 14 21 -5 23
-6 23 -12 6 -7 -19 -7 -19 -21 3 -8 12 -19 22 -25 22 -23 0 -24 30 -1 42 26
14 27 14 38 -4 7 -10 9 -9 9 5 0 9 4 17 9 17 4 0 20 11 35 25 15 14 31 25 37
25 5 0 9 9 9 20 0 15 9 21 41 26 27 5 36 10 27 15 -9 6 -5 9 14 9 15 0 30 5
34 11 4 8 9 7 15 -2 6 -10 9 -11 9 -1 0 6 5 12 11 12 5 0 7 -6 4 -13 -4 -6 1
-3 9 8 9 11 24 26 34 34 16 12 15 13 -5 8 -13 -3 -26 -1 -29 4 -3 5 -2 9 3 8
4 -1 10 0 13 1 3 1 24 3 48 5 48 2 63 12 42 25 -13 8 -12 10 3 10 10 0 20 -7
23 -15 4 -10 19 -15 43 -15 34 1 35 2 17 15 -18 14 -17 15 21 15 23 0 45 5 49
12 5 8 2 9 -9 5 -11 -4 -17 -1 -17 8 0 18 -11 19 -46 3 -23 -11 -28 -10 -40 7
-11 15 -14 16 -14 3 0 -21 -57 -29 -76 -11 -9 9 -14 10 -14 3 0 -6 -5 -8 -11
-5 -6 5 -4 12 8 20 13 10 20 10 25 2 5 -7 8 -2 8 13 l1 25 10 -25 10 -25 14
25 c7 14 11 28 9 31 -2 4 2 11 9 16 17 14 58 23 51 12 -3 -5 7 -9 22 -9 22 0
25 3 16 12 -16 16 -15 33 1 20 8 -7 18 -7 27 -2 8 6 27 10 42 10 15 0 29 4 32
9 3 5 -16 8 -42 7 -26 -1 -53 0 -59 2 -19 6 -15 24 5 21 35 -3 53 1 46 12 -4
8 4 9 27 4 19 -4 31 -4 27 0 -4 5 -3 14 3 22 6 7 8 13 3 14 -5 0 0 4 11 9 20
8 19 9 -1 9 -24 1 -48 -21 -36 -34 4 -4 -3 -2 -15 4 -13 6 -23 16 -23 21 0 6
-8 10 -17 11 -15 0 -15 2 2 9 29 12 47 12 39 -1 -4 -7 -1 -10 6 -7 8 2 16 10
18 17 3 10 -8 12 -49 6 -53 -6 -53 -6 -26 9 17 9 39 13 57 9 35 -7 40 4 8 17
-19 7 -14 9 27 10 28 1 59 3 70 6 11 2 49 6 85 8 69 4 100 12 100 27 0 6 10 9
23 8 12 -1 31 -1 42 0 16 2 15 4 -10 15 l-30 14 48 0 c39 -1 47 -3 42 -16 -4
-12 -3 -13 10 -2 8 7 15 19 15 26 0 11 22 13 108 10 59 -1 130 0 157 5 28 4
68 3 90 -1 l40 -9 -47 2 c-26 0 -51 -3 -55 -7 -4 -5 39 -4 97 0 58 5 152 8
210 8 l105 -2 -74 9 c-115 14 -98 22 29 14 63 -3 140 -6 170 -6 52 0 54 -1 35
-16 l-20 -16 20 8 c58 21 93 25 209 22 69 -2 126 -1 126 1 0 22 -24 149 -38
199 l-16 61 -61 5 c-33 2 -111 3 -173 3 -61 -1 -112 0 -112 2 0 1 15 11 32 22
43 26 202 29 250 4 22 -12 33 -13 42 -4 8 8 8 13 0 18 -31 20 -89 374 -103
627 -5 88 -14 180 -21 205 -20 81 -22 99 -15 147 6 43 8 46 18 26 11 -19 14
-20 31 -7 11 8 14 14 8 14 -17 0 -15 47 3 54 19 7 19 40 1 56 -12 9 -16 5 -22
-24 -3 -20 -4 -50 -2 -66 5 -32 -8 -43 -14 -12 -6 27 12 145 24 159 7 9 7 13
0 13 -10 0 -9 65 3 119 5 26 10 30 20 21 8 -7 18 -9 24 -6 5 3 47 -8 93 -25
45 -16 89 -31 96 -31 6 -1 12 -5 12 -10 0 -4 6 -8 14 -8 14 0 26 29 26 68 0
13 4 20 10 17 5 -3 7 -20 5 -38 -3 -18 -3 -26 1 -19 11 23 24 12 24 -21 l0
-33 133 -28 c165 -35 200 -46 135 -43 -25 1 -44 5 -42 9 2 4 -15 5 -38 3 -55
-6 -87 3 -67 17 11 8 10 8 -4 4 -10 -3 -27 -1 -38 4 -10 6 -19 7 -19 3 1 -19
101 -56 157 -58 32 -2 72 -8 88 -15 17 -7 36 -14 44 -16 18 -3 31 -24 25 -39
-3 -6 2 -12 11 -12 11 0 15 11 15 40 0 31 3 38 15 33 10 -4 15 1 16 17 1 18 2
19 6 4 5 -18 6 -18 19 2 9 12 20 21 26 21 7 0 6 -6 -2 -15 -11 -13 -7 -15 23
-15 20 0 46 4 59 9 13 4 40 11 60 15 30 5 37 3 41 -11 4 -15 5 -15 6 3 1 16
12 23 52 33 27 7 48 15 45 18 -3 3 -18 1 -33 -4 -20 -7 -35 -6 -53 5 l-25 14
27 -6 c16 -4 30 -1 34 6 5 7 3 8 -6 3 -9 -5 -11 -4 -6 3 5 8 15 8 32 2 36 -14
43 -12 14 4 -24 14 -24 14 9 11 18 -1 50 6 72 16 21 11 44 19 50 19 7 0 10 3
6 6 -3 4 -25 -1 -48 -10 -23 -9 -43 -15 -45 -13 -4 4 101 47 112 47 3 0 2 -4
-1 -10 -3 -6 1 -7 10 -4 14 6 14 7 -1 18 -10 8 -16 29 -17 63 -1 28 -5 46 -9
40 -5 -8 -8 -6 -8 6 0 9 -8 17 -17 17 -15 0 -14 2 3 15 10 8 22 15 26 15 12 0
35 -52 43 -97 l7 -42 40 25 c22 14 41 24 43 22 1 -2 16 -25 33 -53 46 -76 92
-200 92 -249 0 -47 -17 -107 -34 -118 -6 -4 -8 -8 -5 -8 4 0 3 -20 -2 -45 -9
-48 -4 -111 31 -420 33 -285 26 -365 -54 -594 -23 -63 -25 -78 -15 -110 9 -30
8 -44 -5 -75 -9 -21 -16 -42 -16 -46 0 -4 80 -10 177 -14 98 -4 183 -12 190
-18 7 -5 21 -7 32 -3 14 4 21 1 24 -12 4 -16 5 -16 6 1 1 19 10 19 269 13 147
-4 366 -13 487 -21 121 -8 339 -20 485 -27 146 -6 267 -14 270 -16 3 -3 -43
-3 -103 -1 -67 2 -106 0 -104 -6 5 -15 68 -29 104 -23 18 3 35 1 38 -4 4 -5
12 -9 18 -9 7 0 6 4 -3 11 -15 11 10 9 100 -5 29 -5 31 -4 10 3 -21 8 -17 9
23 8 26 0 47 -4 47 -9 0 -4 -5 -8 -12 -8 -9 0 -9 -3 0 -12 10 -10 15 -10 22 2
6 10 33 15 96 17 76 2 85 1 69 -11 -17 -12 -15 -14 25 -14 25 -1 48 4 52 10 5
9 10 8 21 -1 10 -8 17 -9 22 -1 3 5 11 10 16 10 6 0 7 -4 4 -10 -4 -6 1 -7 11
-3 14 5 16 3 11 -10 -6 -15 -4 -16 15 -6 16 9 18 13 7 20 -10 6 -6 8 13 7 15
-1 25 -5 22 -9 -7 -11 25 -19 69 -18 l42 2 -35 6 c-25 5 -6 9 70 12 58 3 110
1 115 -4 6 -5 3 -5 -7 -2 -20 8 -25 -10 -5 -18 6 -3 2 -6 -10 -6 -13 -1 -23 4
-23 9 0 6 -21 10 -47 9 -46 -1 -46 -1 -18 -10 17 -6 62 -12 100 -13 39 -2 60
-1 47 1 -12 2 -20 8 -17 13 3 5 12 7 20 3 13 -4 15 24 15 202 l0 207 -76 -7
c-53 -5 -74 -4 -70 4 4 7 -6 9 -31 7 -52 -4 -67 2 -48 20 15 16 99 18 178 5
l47 -8 0 2439 0 2438 -3082 0 -3081 0 6 -447z m2422 123 c-11 -7 -24 -15 -30
-16 -5 -1 -20 -6 -32 -11 -25 -9 -83 -1 -83 12 0 10 73 27 125 28 36 1 38 0
20 -13z m480 -4 c-3 -3 -11 0 -18 7 -9 10 -8 11 6 5 10 -3 15 -9 12 -12z
m-500 -47 c-48 -16 -85 -18 -85 -6 0 11 36 18 90 18 l35 1 -40 -13z m55 -25
c12 -8 9 -10 -12 -10 -15 0 -32 -8 -37 -17 -6 -10 -11 -12 -11 -5 0 7 -13 12
-29 12 -53 0 -43 19 11 23 29 2 55 4 58 5 3 1 12 -3 20 -8z m39 -46 c2 -2 -12
-4 -32 -4 -20 0 -37 4 -37 10 0 8 58 3 69 -6z m233 -56 c-7 -7 -12 -8 -12 -2
0 14 12 26 19 19 2 -3 -1 -11 -7 -17z m345 -20 c-3 -8 -6 -5 -6 6 -1 11 2 17
5 13 3 -3 4 -12 1 -19z m-513 -26 c2 -4 -7 -9 -20 -10 -15 -1 -22 2 -19 8 7
12 32 13 39 2z m-152 -87 c47 -32 162 -40 182 -13 7 10 16 15 19 11 4 -3 7 -1
7 5 0 23 26 1 28 -24 2 -32 -8 -51 -18 -34 -5 8 -10 3 -14 -14 -8 -34 -62 -45
-110 -22 -41 20 -58 20 -33 1 27 -20 18 -47 -18 -53 -40 -6 -145 -5 -153 2 -3
3 2 14 10 23 22 26 28 49 15 62 -8 8 -8 11 2 11 7 0 10 4 7 9 -3 5 1 14 9 21
8 7 15 19 15 26 0 20 10 18 52 -11z m333 -32 c-6 -36 -6 -37 10 -18 9 11 15
14 13 6 -2 -8 -14 -21 -25 -28 -21 -14 -21 -13 -12 24 5 21 9 41 9 46 0 4 3 7
6 7 3 0 3 -17 -1 -37z m-495 -83 c0 -5 -5 -10 -11 -10 -5 0 -7 5 -4 10 3 6 8
10 11 10 2 0 4 -4 4 -10z m271 -62 c0 -10 2 -10 6 0 3 9 10 4 19 -13 18 -34
18 -32 -11 -39 -22 -6 -24 -9 -15 -27 10 -18 8 -19 -27 -18 -21 0 -56 -1 -78
-4 -22 -2 -31 -2 -20 0 11 3 24 9 30 14 5 5 18 9 28 9 26 0 46 28 47 63 0 26
19 40 21 15z m253 -255 c12 -25 27 -36 64 -47 26 -8 72 -26 102 -40 39 -18 65
-24 90 -20 27 4 51 -3 105 -29 39 -18 101 -46 138 -62 38 -16 73 -38 79 -49 6
-12 21 -32 33 -46 28 -30 97 -166 132 -258 54 -145 67 -196 100 -392 3 -19 9
-37 12 -40 16 -11 43 -102 37 -124 -14 -58 -137 -139 -244 -160 -67 -14 -93
-11 -85 10 3 9 -1 14 -12 14 -9 0 -13 -4 -10 -10 3 -5 3 -10 -2 -10 -4 0 -18
20 -30 45 -17 36 -19 45 -7 45 8 0 14 -9 14 -20 0 -11 5 -20 11 -20 6 0 9 6 6
14 -6 15 -1 17 88 31 48 8 161 72 195 112 l25 28 -30 -27 c-43 -38 -147 -88
-184 -88 -17 0 -31 -5 -31 -10 0 -15 -96 -6 -116 11 -12 10 -12 14 -2 20 9 6
8 10 -5 15 -25 9 -21 23 5 16 14 -3 19 -2 14 6 -4 7 -13 12 -20 12 -16 0 -29
53 -15 58 5 2 9 11 9 20 -1 15 -2 15 -11 -1 -6 -9 -14 -15 -19 -12 -5 3 -4 -8
2 -26 6 -17 8 -57 5 -90 -3 -32 -1 -57 3 -54 9 5 19 -32 26 -97 8 -77 38 -213
49 -224 7 -7 15 -32 19 -55 l7 -42 49 52 c27 29 54 50 60 46 6 -4 9 -1 8 6 -5
19 102 71 135 66 20 -3 26 0 23 10 -8 19 5 16 31 -9 24 -22 32 -68 12 -68 -6
0 -9 -7 -5 -15 5 -14 -22 -77 -36 -83 -5 -2 -8 -8 -8 -14 0 -16 -59 -80 -99
-107 -19 -14 -45 -35 -57 -48 -12 -13 -39 -29 -60 -34 -20 -6 -48 -21 -62 -34
-14 -13 -29 -22 -33 -19 -12 7 4 -40 18 -54 7 -7 13 -22 13 -33 0 -23 4 -24
37 -2 24 16 26 16 21 2 -4 -9 -3 -20 2 -25 4 -5 10 -39 14 -75 5 -61 4 -68
-22 -102 -27 -36 -69 -68 -127 -97 -16 -8 -32 -17 -35 -20 -29 -29 -136 -89
-175 -99 -117 -28 -123 -31 -129 -54 -8 -32 -45 -47 -119 -47 -69 0 -93 -10
-84 -34 7 -18 63 -22 87 -5 11 7 4 9 -27 7 -23 -1 -45 1 -49 5 -4 4 8 7 27 7
19 0 45 3 58 7 19 5 23 3 18 -9 -5 -13 1 -15 32 -11 26 4 41 1 50 -11 18 -22
8 -31 -17 -15 -16 10 -31 10 -76 -1 -74 -18 -129 -6 -134 29 -4 26 12 41 45
41 12 0 24 6 27 13 4 7 8 8 11 2 6 -12 95 -7 113 7 6 6 12 17 12 25 0 11 -4
13 -12 5 -17 -13 -170 -16 -177 -3 -4 5 -19 13 -35 17 -22 5 -27 4 -21 -6 11
-17 -188 -9 -209 9 -8 7 -19 10 -25 7 -11 -7 -93 28 -85 37 3 3 -3 3 -15 0
-12 -3 -27 0 -34 6 -8 6 -17 8 -20 5 -3 -4 -14 -3 -24 1 -10 4 -53 20 -96 35
-91 33 -149 72 -141 98 5 15 5 15 -6 -1 -14 -22 -33 -12 -25 14 4 11 2 19 -4
19 -6 0 -11 4 -11 9 0 5 16 9 35 9 26 0 35 -4 35 -16 0 -14 2 -14 9 -3 9 15
59 10 110 -11 14 -6 28 -12 31 -13 3 0 15 -6 27 -13 12 -6 29 -9 37 -6 11 4
16 1 16 -10 0 -9 7 -16 16 -16 10 0 14 5 10 15 -8 21 34 11 96 -24 50 -27 63
-43 28 -34 -11 3 -20 9 -20 14 0 5 -5 9 -11 9 -6 0 -9 -7 -5 -15 3 -8 1 -15
-4 -15 -6 0 -10 -4 -10 -10 0 -5 13 -7 30 -3 19 3 30 1 30 -6 0 -7 9 -9 26 -5
17 4 29 2 35 -7 7 -11 11 -11 17 -2 9 15 77 0 102 -22 21 -18 87 -29 103 -17
6 5 28 12 49 16 22 4 42 16 52 31 10 15 22 22 31 19 8 -4 15 -1 15 6 0 6 6 18
14 26 13 12 15 11 21 -6 7 -22 20 -26 30 -10 4 6 25 8 54 4 44 -6 51 -4 75 22
15 16 39 46 53 67 14 20 29 37 33 37 4 0 12 12 19 26 10 23 15 25 48 19 32 -6
35 -5 30 14 -3 12 1 22 9 25 10 4 12 14 8 30 -3 14 1 39 11 60 17 35 13 96 -5
96 -4 0 -6 -9 -3 -19 5 -19 -54 -91 -75 -91 -12 0 -22 34 -22 75 0 17 -5 37
-10 45 -8 12 -10 10 -10 -10 0 -14 4 -40 9 -58 6 -21 6 -32 0 -32 -6 0 -7 -5
-4 -11 4 -6 -2 -13 -12 -15 -15 -4 -18 -12 -15 -35 3 -19 -1 -31 -10 -34 -9
-4 -13 -15 -11 -29 6 -29 -1 -33 -63 -41 -27 -3 -82 -10 -122 -15 -40 -6 -93
-10 -118 -10 -24 0 -44 -4 -44 -8 0 -15 -78 -11 -91 4 -10 13 -8 13 15 4 35
-13 35 -13 29 8 -2 10 -19 23 -36 30 -18 7 -45 19 -62 27 -36 16 -69 27 -74
25 -2 -1 -7 3 -11 10 -4 6 -24 13 -44 14 -39 3 -51 10 -51 29 0 7 -13 14 -30
15 -16 2 -36 9 -44 15 -11 9 -15 9 -19 -1 -2 -7 -20 -21 -41 -31 -31 -16 -40
-17 -61 -6 -14 7 -65 18 -115 24 -147 19 -215 32 -228 45 -12 11 -76 32 -129
43 -16 3 -28 9 -28 14 0 5 -7 9 -15 9 -8 0 -19 9 -25 19 -5 11 -23 22 -40 26
-25 6 -30 11 -30 37 0 21 -6 31 -20 35 -21 6 -39 68 -24 83 17 16 109 16 99 0
-3 -6 1 -7 10 -4 18 7 105 -31 105 -46 0 -6 7 -10 15 -10 8 0 15 -4 15 -10 0
-5 6 -10 13 -10 7 0 31 -15 53 -33 38 -32 99 -73 140 -95 19 -10 20 -8 16 21
-3 17 -17 50 -32 74 -15 24 -31 60 -35 81 -4 20 -11 43 -17 50 -6 7 -8 28 -5
47 3 19 2 35 -4 35 -5 0 -9 9 -9 20 0 11 5 20 12 20 6 0 2 9 -10 20 -23 21
-27 31 -14 29 18 -3 32 2 32 12 0 7 -9 9 -21 6 -21 -6 -21 -5 2 19 21 22 19
28 -6 25 -5 -1 -2 5 8 12 9 8 17 19 17 26 0 6 9 11 20 11 16 0 20 7 20 31 0
21 -4 28 -12 23 -10 -6 -10 -4 0 7 16 18 15 29 -3 29 -8 0 -15 7 -15 16 0 8 5
12 10 9 6 -3 10 1 10 9 0 8 -4 18 -10 21 -5 3 -10 12 -10 18 0 8 3 8 9 -2 12
-18 22 49 10 69 -5 8 -9 11 -9 6 0 -9 -30 13 -30 23 0 3 19 5 43 3 46 -4 288
45 383 76 32 11 97 26 143 33 l84 13 -7 95 c-3 53 -6 116 -6 140 l0 44 -48 -6
c-63 -7 -223 -45 -241 -57 -12 -7 -13 -17 -3 -61 7 -29 9 -56 5 -60 -5 -3 -24
-9 -43 -13 -35 -6 -36 -5 -53 44 -17 47 -20 50 -45 44 -42 -10 -47 -19 -34
-62 17 -55 16 -58 -17 -72 -39 -16 -47 -10 -62 50 -14 55 -13 54 -90 40 -44
-9 -56 -8 -65 4 -8 12 -12 11 -23 -6 -11 -18 -11 -22 2 -29 14 -8 33 -85 30
-119 -1 -8 3 -18 9 -21 6 -4 7 -12 3 -19 -5 -8 -12 -7 -25 5 -11 10 -20 12
-24 6 -4 -5 0 -13 8 -18 17 -10 33 -113 17 -113 -6 0 -11 -4 -11 -10 0 -5 9
-10 20 -10 16 0 20 -7 20 -35 0 -19 -4 -35 -10 -35 -5 0 -10 -8 -10 -17 -1
-19 -50 -62 -50 -43 0 5 -5 10 -11 10 -5 0 -7 -4 -4 -10 4 -6 -15 -10 -48 -10
-41 0 -56 4 -61 16 -5 13 -9 14 -21 4 -12 -10 -32 -7 -101 16 -47 15 -96 36
-109 45 -26 22 -37 72 -25 125 5 22 11 100 14 174 3 74 10 153 15 175 5 22 15
67 22 100 7 33 21 91 32 128 18 64 23 71 71 102 29 18 58 41 66 50 16 19 204
145 217 145 4 0 29 15 56 34 26 18 62 40 80 47 17 7 34 15 37 19 3 3 17 13 33
23 15 10 27 21 27 26 0 5 16 35 35 67 l36 59 -6 -45 c-4 -25 -8 -51 -11 -58
-2 -7 0 -20 5 -30 5 -9 17 -36 25 -59 14 -38 14 -43 1 -43 -20 0 -19 -18 1
-22 11 -2 22 -22 31 -57 14 -58 71 -154 85 -145 5 3 7 0 6 -7 -2 -6 2 -13 8
-16 14 -5 10 57 -5 85 -18 35 -13 35 28 3 72 -57 273 -69 305 -18 8 12 26 42
41 66 21 34 29 41 37 30 7 -11 9 -9 5 7 -4 18 0 22 19 19 29 -3 32 11 4 20
-20 6 -21 8 -4 83 13 58 3 175 -17 203 -10 15 -19 32 -19 39 0 15 43 -36 64
-77z m46 62 c-7 -8 -17 -15 -23 -15 -6 0 -2 7 9 15 25 19 30 19 14 0z m710
-199 c0 -3 -4 -8 -10 -11 -5 -3 -10 -1 -10 4 0 6 5 11 10 11 6 0 10 -2 10 -4z
m1240 -161 c0 -2 -10 -9 -22 -15 -22 -11 -22 -10 -4 4 21 17 26 19 26 11z
m180 -95 c0 -6 -27 -10 -62 -10 -45 0 -59 3 -48 10 20 13 110 13 110 0z m135
-11 c14 -6 0 -7 -44 -4 -35 2 -66 7 -69 10 -9 9 92 4 113 -6z m-3195 -683 c0
-15 -18 -31 -26 -23 -7 7 7 37 17 37 5 0 9 -6 9 -14z m10 -36 c0 -5 -8 -10
-17 -10 -15 0 -16 2 -3 10 19 12 20 12 20 0z m1750 -70 c0 -5 -4 -10 -10 -10
-5 0 -10 5 -10 10 0 6 5 10 10 10 6 0 10 -4 10 -10z m-1985 -145 c99 -17 175
-17 188 -1 5 6 5 0 1 -14 -4 -14 -11 -28 -17 -31 -5 -4 -7 -13 -4 -21 3 -8 1
-21 -4 -29 -8 -12 -10 -12 -19 1 -8 13 -10 12 -10 -2 0 -12 -8 -18 -22 -18
-17 0 -19 3 -10 9 11 7 11 9 -2 14 -11 5 -16 1 -16 -13 0 -25 -16 -25 -117 -4
-149 30 -223 70 -218 116 1 12 3 37 4 53 l1 31 78 -38 c50 -24 108 -43 167
-53z m1625 -5 c0 -5 -2 -10 -4 -10 -3 0 -8 5 -11 10 -3 6 -1 10 4 10 6 0 11
-4 11 -10z m1557 -162 c-3 -8 -6 -5 -6 6 -1 11 2 17 5 13 3 -3 4 -12 1 -19z
m-1503 -2 c-10 -8 -21 -12 -24 -10 -5 6 21 24 34 24 6 0 1 -6 -10 -14z m-2217
-88 c-3 -8 -6 -5 -6 6 -1 11 2 17 5 13 3 -3 4 -12 1 -19z m658 -16 c-3 -3 -11
0 -18 7 -9 10 -8 11 6 5 10 -3 15 -9 12 -12z m-1895 -82 c6 -11 7 -20 2 -20
-6 0 -12 9 -15 20 -3 11 -3 20 -1 20 2 0 8 -9 14 -20z m-42 -17 c2 -26 1 -26
-12 -8 -13 18 -11 25 9 35 0 0 2 -12 3 -27z m3622 -218 c0 -5 -5 -3 -10 5 -5
8 -10 20 -10 25 0 6 5 3 10 -5 5 -8 10 -19 10 -25z m-3616 -10 c3 -10 0 -12
-11 -8 -12 5 -14 3 -8 -7 5 -8 3 -11 -5 -8 -7 2 -15 13 -16 25 -3 16 1 20 16
16 10 -3 21 -11 24 -18z m3571 -25 c-3 -5 -11 -10 -16 -10 -6 0 -7 5 -4 10 3
6 11 10 16 10 6 0 7 -4 4 -10z m-3585 -55 c0 -14 -2 -25 -4 -25 -2 0 -13 -3
-23 -6 -15 -5 -15 -4 -3 5 13 9 13 11 -1 11 -9 0 -20 -10 -24 -22 -6 -19 -8
-20 -12 -6 -6 23 25 68 48 68 14 0 19 -7 19 -25z m3618 -10 c-3 -3 -9 2 -12
12 -6 14 -5 15 5 6 7 -7 10 -15 7 -18z m-28 -29 c0 -2 -8 -10 -17 -17 -16 -13
-17 -12 -4 4 13 16 21 21 21 13z m28 -91 c-3 -3 -9 2 -12 12 -6 14 -5 15 5 6
7 -7 10 -15 7 -18z m-3578 -63 c0 -11 -12 -24 -27 -31 -27 -12 -27 -12 -10 6
9 11 17 25 17 31 0 7 5 12 10 12 6 0 10 -8 10 -18z m-30 0 c0 -5 -7 -9 -15 -9
-8 0 -12 4 -9 9 3 4 9 8 15 8 5 0 9 -4 9 -8z m3050 -6 c0 -7 -9 -16 -20 -19
-24 -6 -25 -3 -4 17 19 20 24 20 24 2z m2430 10 c0 -2 -7 -7 -16 -10 -8 -3
-12 -2 -9 4 6 10 25 14 25 6z m-5513 -41 c0 -8 -4 -15 -9 -15 -4 0 -8 7 -8 15
0 8 4 15 8 15 5 0 9 -7 9 -15z m53 -9 c0 -2 -8 -10 -17 -17 -16 -13 -17 -12
-4 4 13 16 21 21 21 13z m3522 -28 c-7 -7 -12 -8 -12 -2 0 6 3 14 7 17 3 4 9
5 12 2 2 -3 -1 -11 -7 -17z m-3562 -5 c-1 -22 -13 -53 -22 -53 -5 0 -6 5 -3
10 4 6 1 18 -6 26 -10 12 -9 13 6 8 13 -5 16 -4 11 4 -4 7 -2 12 3 12 6 0 11
-3 11 -7z m-40 -33 c0 -5 -2 -10 -4 -10 -3 0 -8 5 -11 10 -3 6 -1 10 4 10 6 0
11 -4 11 -10z m78 -54 c-2 -1 -12 -8 -23 -16 -17 -12 -18 -12 -7 0 18 20 15
29 -8 23 -11 -3 -18 -9 -15 -13 3 -4 -4 -10 -16 -13 -17 -5 -18 -3 -7 10 18
22 51 32 66 20 7 -5 11 -10 10 -11z m2469 -48 c-3 -7 -5 -2 -5 12 0 14 2 19 5
13 2 -7 2 -19 0 -25z m-2432 12 c-3 -5 -11 -10 -16 -10 -6 0 -7 5 -4 10 3 6
11 10 16 10 6 0 7 -4 4 -10z m-35 -54 c0 -2 -8 -10 -17 -17 -16 -13 -17 -12
-4 4 13 16 21 21 21 13z m5254 -12 c3 -8 2 -12 -4 -9 -6 3 -10 10 -10 16 0 14
7 11 14 -7z m-5284 -34 c13 -8 13 -11 1 -22 -9 -8 -12 -9 -7 -1 3 6 -2 16 -11
22 -10 6 -13 10 -8 11 6 0 17 -5 25 -10z m2677 -6 c-3 -3 -12 -4 -19 -1 -8 3
-5 6 6 6 11 1 17 -2 13 -5z m-2627 -51 c0 -7 -4 -13 -10 -13 -5 0 -10 12 -10
28 0 21 2 24 10 12 5 -8 10 -21 10 -27z m3097 21 c-3 -3 -12 -4 -19 -1 -8 3
-5 6 6 6 11 1 17 -2 13 -5z m-3129 -34 c2 -29 -10 -40 -23 -20 -9 14 -25 12
-22 -2 1 -7 5 -15 9 -18 4 -3 -8 -14 -25 -24 -32 -18 -32 -18 -14 2 14 15 15
22 6 28 -8 4 -10 3 -5 -4 4 -7 2 -12 -4 -12 -7 0 -10 6 -7 13 2 6 12 11 21 9
9 -2 15 1 14 5 -3 9 33 53 42 53 3 0 7 -13 8 -30z m5260 -15 c-3 -3 -9 2 -12
12 -6 14 -5 15 5 6 7 -7 10 -15 7 -18z m-2431 9 c-3 -3 -12 -4 -19 -1 -8 3 -5
6 6 6 11 1 17 -2 13 -5z m-2857 -93 c0 -11 -5 -23 -12 -27 -7 -4 -8 -3 -4 5 4
6 0 14 -9 17 -13 6 -14 8 -3 15 20 13 28 11 28 -10z m5134 -27 c3 -8 2 -12 -4
-9 -6 3 -10 10 -10 16 0 14 7 11 14 -7z m-5034 -14 c0 -5 -5 -10 -11 -10 -5 0
-7 5 -4 10 3 6 8 10 11 10 2 0 4 -4 4 -10z m-95 -10 c-3 -5 -12 -10 -18 -10
-7 0 -6 4 3 10 19 12 23 12 15 0z m73 -36 c-17 -17 -38 -12 -38 9 0 7 4 6 11
-3 9 -13 11 -13 22 2 6 9 13 15 16 12 3 -2 -2 -12 -11 -20z m-110 3 c8 -10 6
-13 -9 -14 -19 -2 -25 8 -12 20 8 9 9 9 21 -6z m3707 -15 c-3 -3 -11 0 -18 7
-9 10 -8 11 6 5 10 -3 15 -9 12 -12z m-3647 -27 c-3 -3 -9 2 -12 12 -6 14 -5
15 5 6 7 -7 10 -15 7 -18z m36 -32 c4 -11 -4 -25 -26 -44 -18 -16 -37 -28 -43
-28 -5 0 6 14 25 31 22 19 30 32 22 35 -6 3 -10 9 -6 14 8 14 21 11 28 -8z
m5031 -173 c3 -5 2 -10 -4 -10 -5 0 -13 5 -16 10 -3 6 -2 10 4 10 5 0 13 -4
16 -10z m-5005 -35 c-7 -8 -18 -15 -24 -15 -6 0 -3 5 6 11 11 6 15 16 11 27
-5 14 -3 15 7 5 11 -10 11 -15 0 -28z m-5 -45 c-10 -11 -21 -17 -24 -14 -3 3
3 12 13 20 28 20 32 17 11 -6z m-22 -77 c-7 -2 -13 -12 -13 -20 0 -9 -3 -14
-6 -10 -10 10 4 37 18 36 10 0 10 -2 1 -6z m4747 -103 c0 -5 -4 -10 -10 -10
-5 0 -10 5 -10 10 0 6 5 10 10 10 6 0 10 -4 10 -10z m-4700 -14 c0 -2 -7 -7
-16 -10 -8 -3 -12 -2 -9 4 6 10 25 14 25 6z m3750 -40 c0 -3 -4 -8 -10 -11 -5
-3 -10 -1 -10 4 0 6 5 11 10 11 6 0 10 -2 10 -4z m-3370 -371 c0 -17 -35 -19
-114 -9 -73 10 -54 24 34 24 64 0 80 -3 80 -15z m501 -21 c16 -15 30 -16 179
-15 91 0 197 -3 250 -8 22 -1 23 -3 8 -12 -11 -6 -59 -8 -120 -5 -57 3 -154 6
-215 7 -75 1 -111 4 -107 11 5 7 -36 8 -123 4 -72 -3 -133 -3 -137 1 -4 4 7
14 23 23 39 20 218 16 242 -6z m3846 -6 c-3 -7 -5 -2 -5 12 0 14 2 19 5 13 2
-7 2 -19 0 -25z m-3089 -11 c25 -20 -4 -23 -138 -18 -134 6 -135 6 -105 23 25
15 46 17 130 11 55 -3 106 -10 113 -16z m3583 -17 c15 0 31 -4 34 -10 3 -5 14
-10 24 -10 10 0 25 -7 32 -16 12 -14 6 -15 -61 -10 -41 2 -118 6 -170 6 -52 1
-88 4 -80 7 8 4 20 13 26 21 8 12 29 15 84 13 57 -2 71 0 65 11 -6 10 -5 11 6
1 7 -7 25 -13 40 -13z m-504 -62 c-2 -13 -4 -5 -4 17 -1 22 1 32 4 23 2 -10 2
-28 0 -40z m170 36 c-3 -3 -12 -4 -19 -1 -8 3 -5 6 6 6 11 1 17 -2 13 -5z
m884 -25 l44 -20 -85 5 c-47 3 -113 6 -147 6 -58 0 -63 2 -63 22 0 21 2 21
103 15 74 -5 117 -13 148 -28z m-1952 7 c60 -4 79 -10 95 -27 l21 -21 -49 6
c-27 3 -93 6 -147 6 -59 0 -99 4 -99 10 0 6 6 10 14 10 7 0 19 7 26 15 7 8 23
12 38 10 15 -3 60 -7 101 -9z m-2452 -2 c-3 -3 -12 -4 -19 -1 -8 3 -5 6 6 6
11 1 17 -2 13 -5z m513 -4 c8 -5 11 -10 5 -10 -5 0 -17 5 -25 10 -8 5 -10 10
-5 10 6 0 17 -5 25 -10z m173 3 c-7 -2 -19 -2 -25 0 -7 3 -2 5 12 5 14 0 19
-2 13 -5z m44 1 c-3 -3 -12 -4 -19 -1 -8 3 -5 6 6 6 11 1 17 -2 13 -5z m1476
-21 c-7 -2 -19 -2 -25 0 -7 3 -2 5 12 5 14 0 19 -2 13 -5z m826 -34 c14 -11
18 -19 10 -19 -8 0 -25 -3 -39 -5 -22 -5 -23 -4 -5 5 16 8 11 9 -20 5 -119
-15 -162 -15 -174 -2 -6 8 -23 13 -39 11 -15 -2 -19 -1 -9 2 9 3 17 10 17 15
0 20 43 24 138 16 70 -7 103 -14 121 -28z m591 -3 c0 -26 -6 -18 -14 19 -5 22
-4 26 4 15 5 -8 10 -24 10 -34z m-276 -4 c2 -4 -13 -6 -35 -4 -21 2 -39 6 -39
8 0 7 69 4 74 -4z m-3606 -20 c2 -7 -5 -12 -15 -11 -12 0 -14 2 -4 6 11 5 11
7 0 15 -12 8 -12 9 0 6 8 -3 17 -10 19 -16z m-511 -138 c-3 -3 -12 -4 -19 -1
-8 3 -5 6 6 6 11 1 17 -2 13 -5z m811 -11 c-10 -2 -26 -2 -35 0 -10 3 -2 5 17
5 19 0 27 -2 18 -5z m52 -3 c0 -5 -7 -10 -15 -10 -8 0 -15 5 -15 10 0 6 7 10
15 10 8 0 15 -4 15 -10z m73 -7 c-7 -2 -19 -2 -25 0 -7 3 -2 5 12 5 14 0 19
-2 13 -5z m2190 0 c-13 -2 -33 -2 -45 0 -13 2 -3 4 22 4 25 0 35 -2 23 -4z
m54 1 c-3 -3 -12 -4 -19 -1 -8 3 -5 6 6 6 11 1 17 -2 13 -5z m673 -24 c0 -5
-4 -10 -10 -10 -5 0 -10 5 -10 10 0 6 5 10 10 10 6 0 10 -4 10 -10z m-3570 -4
c0 -9 -30 -14 -35 -6 -4 6 3 10 14 10 12 0 21 -2 21 -4z m3663 -3 c-7 -2 -21
-2 -30 0 -10 3 -4 5 12 5 17 0 24 -2 18 -5z m-3674 -44 c-22 -14 -33 -10 -19
6 7 8 17 12 22 9 6 -4 5 -10 -3 -15z m-159 -4 c0 -9 -6 -12 -15 -9 -8 4 -12
10 -9 15 8 14 24 10 24 -6z m110 -4 c0 -5 -9 -7 -20 -4 -11 3 -20 7 -20 9 0 2
9 4 20 4 11 0 20 -4 20 -9z m-240 -21 c0 -5 -2 -10 -4 -10 -3 0 -8 5 -11 10
-3 6 -1 10 4 10 6 0 11 -4 11 -10z m4873 -37 c-7 -2 -19 -2 -25 0 -7 3 -2 5
12 5 14 0 19 -2 13 -5z m200 -10 c-13 -2 -35 -2 -50 0 -16 2 -5 4 22 4 28 0
40 -2 28 -4z m420 -20 c-7 -2 -19 -2 -25 0 -7 3 -2 5 12 5 14 0 19 -2 13 -5z
m-5709 -158 c-22 -17 -34 -19 -34 -6 0 5 8 12 18 14 32 9 36 7 16 -8z m-44
-70 c0 -8 -4 -15 -10 -15 -5 0 -7 7 -4 15 4 8 8 15 10 15 2 0 4 -7 4 -15z
m-30 -5 c0 -5 -2 -10 -4 -10 -3 0 -8 5 -11 10 -3 6 -1 10 4 10 6 0 11 -4 11
-10z m-185 -210 c3 -6 -1 -7 -9 -4 -18 7 -21 14 -7 14 6 0 13 -4 16 -10z"/>
<path d="M2355 5230 c-3 -5 -1 -10 4 -10 6 0 11 5 11 10 0 6 -2 10 -4 10 -3 0
-8 -4 -11 -10z"/>
<path d="M3320 5185 c7 -9 15 -13 17 -11 7 7 -7 26 -19 26 -6 0 -6 -6 2 -15z"/>
<path d="M3314 5151 c7 -11 46 -35 46 -28 0 3 -12 12 -26 22 -15 9 -23 12 -20
6z"/>
<path d="M3030 5064 c-6 -14 -10 -28 -10 -31 0 -3 -8 -12 -17 -20 -17 -12 -16
-13 7 -11 21 3 25 -1 23 -19 -2 -14 3 -23 12 -23 25 0 27 20 3 41 -20 18 -21
20 -3 14 36 -12 38 -10 46 25 5 23 4 37 -4 42 -24 15 -48 8 -57 -18z"/>
<path d="M2080 5024 c0 -33 33 -30 38 4 3 17 -2 22 -17 22 -16 0 -21 -6 -21
-26z"/>
<path d="M3146 5025 c4 -8 8 -15 10 -15 2 0 4 7 4 15 0 8 -4 15 -10 15 -5 0
-7 -7 -4 -15z"/>
<path d="M3110 5010 c0 -5 5 -10 11 -10 5 0 7 5 4 10 -3 6 -8 10 -11 10 -2 0
-4 -4 -4 -10z"/>
<path d="M3151 4993 c0 -4 4 -17 9 -28 8 -19 9 -19 9 2 1 12 -3 25 -9 28 -5 3
-10 3 -9 -2z"/>
<path d="M2427 4969 c-9 -5 -24 -24 -33 -41 -9 -17 -27 -41 -41 -54 -14 -13
-21 -24 -15 -24 6 0 18 7 27 16 22 22 33 9 12 -14 -10 -10 -14 -22 -10 -25 12
-13 23 -7 35 18 13 28 28 33 28 9 0 -10 7 -14 23 -12 14 2 22 10 22 23 0 23
16 45 28 38 4 -3 5 -13 2 -23 -6 -18 20 -36 30 -20 6 10 -66 119 -80 119 -5 0
-18 -4 -28 -10z m41 -24 c-3 -3 -9 2 -12 12 -6 14 -5 15 5 6 7 -7 10 -15 7
-18z"/>
<path d="M2970 4964 c0 -9 5 -14 12 -12 18 6 21 28 4 28 -9 0 -16 -7 -16 -16z"/>
<path d="M3100 4966 c0 -9 5 -16 10 -16 6 0 10 4 10 9 0 6 -4 13 -10 16 -5 3
-10 -1 -10 -9z"/>
<path d="M3010 4920 c0 -5 5 -10 10 -10 6 0 10 5 10 10 0 6 -4 10 -10 10 -5 0
-10 -4 -10 -10z"/>
<path d="M3080 4920 c0 -5 5 -10 10 -10 6 0 10 5 10 10 0 6 -4 10 -10 10 -5 0
-10 -4 -10 -10z"/>
<path d="M2590 4870 c0 -5 5 -10 11 -10 5 0 7 5 4 10 -3 6 -8 10 -11 10 -2 0
-4 -4 -4 -10z"/>
<path d="M2650 4870 c0 -5 5 -10 11 -10 5 0 7 5 4 10 -3 6 -8 10 -11 10 -2 0
-4 -4 -4 -10z"/>
<path d="M3050 4870 c0 -5 5 -10 10 -10 6 0 10 5 10 10 0 6 -4 10 -10 10 -5 0
-10 -4 -10 -10z"/>
<path d="M2980 4860 c0 -5 4 -10 9 -10 6 0 13 5 16 10 3 6 -1 10 -9 10 -9 0
-16 -4 -16 -10z"/>
<path d="M2550 4835 c0 -8 6 -15 14 -15 22 0 28 17 10 24 -22 9 -24 8 -24 -9z"/>
<path d="M2315 4819 c-4 -6 -5 -13 -2 -16 7 -7 27 6 27 18 0 12 -17 12 -25 -2z"/>
<path d="M2487 4824 c-8 -8 1 -24 14 -24 5 0 9 7 9 15 0 15 -12 20 -23 9z"/>
<path d="M2250 4810 c0 -5 7 -10 15 -10 8 0 15 5 15 10 0 6 -7 10 -15 10 -8 0
-15 -4 -15 -10z"/>
<path d="M2665 4786 c55 -50 74 -61 71 -39 -2 9 -27 30 -57 46 l-54 29 40 -36z"/>
<path d="M2950 4811 c0 -6 5 -13 10 -16 6 -3 10 1 10 9 0 9 -4 16 -10 16 -5 0
-10 -4 -10 -9z"/>
<path d="M2420 4800 c0 -5 4 -10 9 -10 6 0 13 5 16 10 3 6 -1 10 -9 10 -9 0
-16 -4 -16 -10z"/>
<path d="M2600 4785 c0 -8 5 -15 10 -15 6 0 10 7 10 15 0 8 -4 15 -10 15 -5 0
-10 -7 -10 -15z"/>
<path d="M2352 4779 c2 -6 8 -10 13 -10 5 0 11 4 13 10 2 6 -4 11 -13 11 -9 0
-15 -5 -13 -11z"/>
<path d="M2532 4779 c2 -7 10 -15 17 -17 8 -3 12 1 9 9 -2 7 -10 15 -17 17 -8
3 -12 -1 -9 -9z"/>
<path d="M2290 4755 c0 -8 5 -15 10 -15 6 0 10 7 10 15 0 8 -4 15 -10 15 -5 0
-10 -7 -10 -15z"/>
<path d="M2465 4760 c-3 -5 1 -10 9 -10 9 0 16 5 16 10 0 6 -4 10 -9 10 -6 0
-13 -4 -16 -10z"/>
<path d="M2925 4750 c-3 -5 1 -10 10 -10 9 0 13 5 10 10 -3 6 -8 10 -10 10 -2
0 -7 -4 -10 -10z"/>
<path d="M2400 4740 c0 -5 5 -10 10 -10 6 0 10 5 10 10 0 6 -4 10 -10 10 -5 0
-10 -4 -10 -10z"/>
<path d="M2650 4740 c0 -5 5 -10 10 -10 6 0 10 5 10 10 0 6 -4 10 -10 10 -5 0
-10 -4 -10 -10z"/>
<path d="M2510 4710 c0 -5 5 -10 10 -10 6 0 10 5 10 10 0 6 -4 10 -10 10 -5 0
-10 -4 -10 -10z"/>
<path d="M2445 4690 c3 -5 8 -10 11 -10 2 0 4 5 4 10 0 6 -5 10 -11 10 -5 0
-7 -4 -4 -10z"/>
<path d="M2895 4690 c-3 -5 -1 -10 4 -10 6 0 11 5 11 10 0 6 -2 10 -4 10 -3 0
-8 -4 -11 -10z"/>
<path d="M2815 4667 c-15 -22 -12 -37 9 -37 11 0 53 48 44 51 -27 7 -41 4 -53
-14z"/>
<path d="M3280 4678 c-25 -3 -72 -7 -105 -7 -33 -1 -109 -6 -168 -13 l-109
-11 5 -46 c2 -25 11 -88 18 -139 13 -93 13 -93 39 -86 14 4 50 10 80 13 l55 6
-3 102 -3 101 193 4 c106 2 194 3 195 3 1 -1 6 -44 10 -96 6 -73 11 -94 23
-94 9 0 14 8 13 21 -2 15 5 24 20 28 18 5 19 8 7 15 -8 5 -18 7 -22 5 -4 -3
-8 0 -8 5 0 6 4 11 10 11 5 0 7 7 3 16 -4 10 1 22 12 30 15 11 16 16 5 29 -10
12 -11 24 -1 54 14 50 14 54 -4 47 -8 -3 -15 -1 -15 3 0 10 -182 9 -250 -1z"/>
<path d="M2561 4671 c-8 -5 -9 -11 -3 -15 5 -3 12 1 16 9 6 17 6 18 -13 6z"/>
<path d="M2490 4650 c0 -5 5 -10 10 -10 6 0 10 5 10 10 0 6 -4 10 -10 10 -5 0
-10 -4 -10 -10z"/>
<path d="M2670 4629 c0 -5 5 -7 10 -4 6 3 10 8 10 11 0 2 -4 4 -10 4 -5 0 -10
-5 -10 -11z"/>
<path d="M3565 4630 c-3 -5 -1 -10 4 -10 6 0 11 5 11 10 0 6 -2 10 -4 10 -3 0
-8 -4 -11 -10z"/>
<path d="M2600 4620 c0 -5 5 -10 11 -10 5 0 7 5 4 10 -3 6 -8 10 -11 10 -2 0
-4 -4 -4 -10z"/>
<path d="M2530 4599 c0 -5 5 -7 10 -4 6 3 10 8 10 11 0 2 -4 4 -10 4 -5 0 -10
-5 -10 -11z"/>
<path d="M1825 4560 c3 -5 8 -10 11 -10 2 0 4 5 4 10 0 6 -5 10 -11 10 -5 0
-7 -4 -4 -10z"/>
<path d="M1970 4551 c0 -5 5 -13 10 -16 6 -3 10 -2 10 4 0 5 -4 13 -10 16 -5
3 -10 2 -10 -4z"/>
<path d="M1880 4540 c0 -5 5 -10 11 -10 5 0 7 5 4 10 -3 6 -8 10 -11 10 -2 0
-4 -4 -4 -10z"/>
<path d="M2061 4534 c0 -11 3 -14 6 -6 3 7 2 16 -1 19 -3 4 -6 -2 -5 -13z"/>
<path d="M1940 4510 c0 -5 5 -10 10 -10 6 0 10 5 10 10 0 6 -4 10 -10 10 -5 0
-10 -4 -10 -10z"/>
<path d="M1845 4490 c3 -5 8 -10 11 -10 2 0 4 5 4 10 0 6 -5 10 -11 10 -5 0
-7 -4 -4 -10z"/>
<path d="M2000 4491 c0 -5 5 -13 10 -16 6 -3 10 -2 10 4 0 5 -4 13 -10 16 -5
3 -10 2 -10 -4z"/>
<path d="M2434 4478 c-4 -6 -2 -14 4 -16 7 -2 9 -8 6 -14 -4 -6 -1 -9 7 -6 20
7 24 48 5 48 -8 0 -18 -5 -22 -12z"/>
<path d="M1905 4470 c3 -5 8 -10 11 -10 2 0 4 5 4 10 0 6 -5 10 -11 10 -5 0
-7 -4 -4 -10z"/>
<path d="M1970 4450 c0 -5 5 -10 11 -10 5 0 7 5 4 10 -3 6 -8 10 -11 10 -2 0
-4 -4 -4 -10z"/>
<path d="M2266 4451 c-10 -15 4 -39 25 -44 17 -5 20 -1 17 21 -3 27 -31 42
-42 23z"/>
<path d="M3670 4439 c0 -5 5 -7 10 -4 6 3 10 8 10 11 0 2 -4 4 -10 4 -5 0 -10
-5 -10 -11z"/>
<path d="M1870 4430 c0 -5 5 -10 10 -10 6 0 10 5 10 10 0 6 -4 10 -10 10 -5 0
-10 -4 -10 -10z"/>
<path d="M2030 4430 c0 -5 5 -10 10 -10 6 0 10 5 10 10 0 6 -4 10 -10 10 -5 0
-10 -4 -10 -10z"/>
<path d="M1780 4420 c0 -5 5 -10 11 -10 5 0 7 5 4 10 -3 6 -8 10 -11 10 -2 0
-4 -4 -4 -10z"/>
<path d="M3610 4410 c0 -5 5 -10 10 -10 6 0 10 5 10 10 0 6 -4 10 -10 10 -5 0
-10 -4 -10 -10z"/>
<path d="M1835 4390 c3 -5 8 -10 11 -10 2 0 4 5 4 10 0 6 -5 10 -11 10 -5 0
-7 -4 -4 -10z"/>
<path d="M2000 4390 c0 -5 7 -10 16 -10 8 0 12 5 9 10 -3 6 -10 10 -16 10 -5
0 -9 -4 -9 -10z"/>
<path d="M3540 4390 c0 -5 7 -10 15 -10 8 0 15 5 15 10 0 6 -7 10 -15 10 -8 0
-15 -4 -15 -10z"/>
<path d="M3491 4374 c0 -11 3 -14 6 -6 3 7 2 16 -1 19 -3 4 -6 -2 -5 -13z"/>
<path d="M2065 4370 c3 -5 8 -10 11 -10 2 0 4 5 4 10 0 6 -5 10 -11 10 -5 0
-7 -4 -4 -10z"/>
<path d="M3580 4360 c0 -5 7 -10 16 -10 8 0 12 5 9 10 -3 6 -10 10 -16 10 -5
0 -9 -4 -9 -10z"/>
<path d="M1960 4350 c0 -5 7 -10 16 -10 8 0 12 5 9 10 -3 6 -10 10 -16 10 -5
0 -9 -4 -9 -10z"/>
<path d="M2036 4343 c-11 -11 -6 -23 9 -23 8 0 15 4 15 9 0 13 -16 22 -24 14z"/>
<path d="M3520 4340 c0 -5 5 -10 10 -10 6 0 10 5 10 10 0 6 -4 10 -10 10 -5 0
-10 -4 -10 -10z"/>
<path d="M1865 4330 c3 -5 11 -10 16 -10 6 0 7 5 4 10 -3 6 -11 10 -16 10 -6
0 -7 -4 -4 -10z"/>
<path d="M3336 4328 c3 -5 10 -6 15 -3 13 9 11 12 -6 12 -8 0 -12 -4 -9 -9z"/>
<path d="M3620 4319 c0 -5 5 -7 10 -4 6 3 10 8 10 11 0 2 -4 4 -10 4 -5 0 -10
-5 -10 -11z"/>
<path d="M1920 4312 c0 -5 7 -13 16 -16 10 -4 14 -1 12 6 -5 15 -28 23 -28 10z"/>
<path d="M3290 4306 c0 -2 8 -10 18 -17 15 -13 16 -12 3 4 -13 16 -21 21 -21
13z"/>
<path d="M3344 4298 c-3 -4 4 -8 15 -8 12 0 21 4 21 8 0 5 -7 9 -15 9 -9 0
-18 -4 -21 -9z"/>
<path d="M3495 4300 c-3 -5 1 -10 9 -10 9 0 16 5 16 10 0 6 -4 10 -9 10 -6 0
-13 -4 -16 -10z"/>
<path d="M3560 4300 c0 -5 5 -10 10 -10 6 0 10 5 10 10 0 6 -4 10 -10 10 -5 0
-10 -4 -10 -10z"/>
<path d="M1830 4290 c0 -5 5 -10 10 -10 6 0 10 5 10 10 0 6 -4 10 -10 10 -5 0
-10 -4 -10 -10z"/>
<path d="M1995 4290 c3 -5 10 -10 16 -10 5 0 9 5 9 10 0 6 -7 10 -16 10 -8 0
-12 -4 -9 -10z"/>
<path d="M1895 4270 c3 -5 11 -10 16 -10 6 0 7 5 4 10 -3 6 -11 10 -16 10 -6
0 -7 -4 -4 -10z"/>
<path d="M3600 4270 c0 -5 5 -10 10 -10 6 0 10 5 10 10 0 6 -4 10 -10 10 -5 0
-10 -4 -10 -10z"/>
<path d="M1955 4250 c3 -5 10 -10 16 -10 5 0 9 5 9 10 0 6 -7 10 -16 10 -8 0
-12 -4 -9 -10z"/>
<path d="M3535 4250 c3 -5 10 -10 16 -10 5 0 9 5 9 10 0 6 -7 10 -16 10 -8 0
-12 -4 -9 -10z"/>
<path d="M2030 4240 c0 -5 4 -10 9 -10 6 0 13 5 16 10 3 6 -1 10 -9 10 -9 0
-16 -4 -16 -10z"/>
<path d="M2867 4243 c-4 -3 -7 -15 -7 -25 0 -21 36 -25 43 -5 9 27 -17 50 -36
30z"/>
<path d="M3350 4240 c0 -6 7 -10 15 -10 8 0 15 2 15 4 0 2 -7 6 -15 10 -8 3
-15 1 -15 -4z"/>
<path d="M1860 4230 c0 -5 5 -10 10 -10 6 0 10 5 10 10 0 6 -4 10 -10 10 -5 0
-10 -4 -10 -10z"/>
<path d="M2635 4230 c4 -6 11 -8 16 -5 14 9 11 15 -7 15 -8 0 -12 -5 -9 -10z"/>
<path d="M3640 4230 c0 -5 5 -10 10 -10 6 0 10 5 10 10 0 6 -4 10 -10 10 -5 0
-10 -4 -10 -10z"/>
<path d="M2575 4220 c-3 -5 -1 -10 4 -10 6 0 11 5 11 10 0 6 -2 10 -4 10 -3 0
-8 -4 -11 -10z"/>
<path d="M1920 4210 c0 -5 5 -10 10 -10 6 0 10 5 10 10 0 6 -4 10 -10 10 -5 0
-10 -4 -10 -10z"/>
<path d="M3520 4211 c0 -6 5 -13 10 -16 6 -3 10 1 10 9 0 9 -4 16 -10 16 -5 0
-10 -4 -10 -9z"/>
<path d="M3570 4210 c0 -5 7 -10 15 -10 8 0 15 5 15 10 0 6 -7 10 -15 10 -8 0
-15 -4 -15 -10z"/>
<path d="M1990 4200 c0 -5 5 -10 10 -10 6 0 10 5 10 10 0 6 -4 10 -10 10 -5 0
-10 -4 -10 -10z"/>
<path d="M1825 4190 c3 -5 8 -10 11 -10 2 0 4 5 4 10 0 6 -5 10 -11 10 -5 0
-7 -4 -4 -10z"/>
<path d="M2055 4190 c-3 -5 3 -10 14 -10 12 0 21 5 21 10 0 6 -6 10 -14 10 -8
0 -18 -4 -21 -10z"/>
<path d="M2620 4180 c0 -5 5 -10 10 -10 6 0 10 5 10 10 0 6 -4 10 -10 10 -5 0
-10 -4 -10 -10z"/>
<path d="M1950 4160 c0 -5 7 -10 16 -10 8 0 12 5 9 10 -3 6 -10 10 -16 10 -5
0 -9 -4 -9 -10z"/>
<path d="M2216 4157 c3 -10 9 -15 12 -12 3 3 0 11 -7 18 -10 9 -11 8 -5 -6z"/>
<path d="M2385 4160 c3 -5 8 -10 11 -10 2 0 4 5 4 10 0 6 -5 10 -11 10 -5 0
-7 -4 -4 -10z"/>
<path d="M2555 4160 c-3 -5 -1 -10 4 -10 6 0 11 5 11 10 0 6 -2 10 -4 10 -3 0
-8 -4 -11 -10z"/>
<path d="M3100 4160 c0 -5 5 -10 10 -10 6 0 10 5 10 10 0 6 -4 10 -10 10 -5 0
-10 -4 -10 -10z"/>
<path d="M2020 4150 c0 -5 7 -10 15 -10 8 0 15 5 15 10 0 6 -7 10 -15 10 -8 0
-15 -4 -15 -10z"/>
<path d="M2315 4150 c-3 -5 -1 -10 4 -10 6 0 11 5 11 10 0 6 -2 10 -4 10 -3 0
-8 -4 -11 -10z"/>
<path d="M2245 4140 c3 -5 8 -10 11 -10 2 0 4 5 4 10 0 6 -5 10 -11 10 -5 0
-7 -4 -4 -10z"/>
<path d="M2600 4125 c0 -8 5 -15 10 -15 6 0 10 7 10 15 0 8 -4 15 -10 15 -5 0
-10 -7 -10 -15z"/>
<path d="M3451 4124 c0 -11 3 -14 6 -6 3 7 2 16 -1 19 -3 4 -6 -2 -5 -13z"/>
<path d="M1760 4120 c0 -5 5 -10 10 -10 6 0 10 5 10 10 0 6 -4 10 -10 10 -5 0
-10 -4 -10 -10z"/>
<path d="M2102 4110 c0 -14 2 -19 5 -12 2 6 2 18 0 25 -3 6 -5 1 -5 -13z"/>
<path d="M2200 4120 c0 -5 5 -10 10 -10 6 0 10 5 10 10 0 6 -4 10 -10 10 -5 0
-10 -4 -10 -10z"/>
<path d="M3580 4120 c0 -5 5 -10 10 -10 6 0 10 5 10 10 0 6 -4 10 -10 10 -5 0
-10 -4 -10 -10z"/>
<path d="M3640 4120 c0 -5 5 -10 10 -10 6 0 10 5 10 10 0 6 -4 10 -10 10 -5 0
-10 -4 -10 -10z"/>
<path d="M1918 4113 c7 -3 16 -2 19 1 4 3 -2 6 -13 5 -11 0 -14 -3 -6 -6z"/>
<path d="M2530 4110 c0 -5 7 -10 15 -10 8 0 15 5 15 10 0 6 -7 10 -15 10 -8 0
-15 -4 -15 -10z"/>
<path d="M3135 4110 c3 -5 8 -10 11 -10 2 0 4 5 4 10 0 6 -5 10 -11 10 -5 0
-7 -4 -4 -10z"/>
<path d="M1700 4100 c0 -5 5 -10 10 -10 6 0 10 5 10 10 0 6 -4 10 -10 10 -5 0
-10 -4 -10 -10z"/>
<path d="M2040 4100 c0 -5 7 -10 15 -10 8 0 15 5 15 10 0 6 -7 10 -15 10 -8 0
-15 -4 -15 -10z"/>
<path d="M2240 4100 c0 -5 5 -10 11 -10 5 0 7 5 4 10 -3 6 -8 10 -11 10 -2 0
-4 -4 -4 -10z"/>
<path d="M1815 4090 c3 -5 8 -10 11 -10 2 0 4 5 4 10 0 6 -5 10 -11 10 -5 0
-7 -4 -4 -10z"/>
<path d="M2280 4090 c0 -5 5 -10 11 -10 5 0 7 5 4 10 -3 6 -8 10 -11 10 -2 0
-4 -4 -4 -10z"/>
<path d="M2200 4081 c0 -6 5 -13 10 -16 6 -3 10 1 10 9 0 9 -4 16 -10 16 -5 0
-10 -4 -10 -9z"/>
<path d="M2320 4080 c0 -5 5 -10 10 -10 6 0 10 5 10 10 0 6 -4 10 -10 10 -5 0
-10 -4 -10 -10z"/>
<path d="M2465 4080 c-3 -5 -2 -10 4 -10 5 0 13 5 16 10 3 6 2 10 -4 10 -5 0
-13 -4 -16 -10z"/>
<path d="M3325 4080 c-3 -5 -1 -10 4 -10 6 0 11 5 11 10 0 6 -2 10 -4 10 -3 0
-8 -4 -11 -10z"/>
<path d="M2240 4071 c0 -5 5 -13 10 -16 6 -3 10 -2 10 4 0 5 -4 13 -10 16 -5
3 -10 2 -10 -4z"/>
<path d="M2580 4070 c0 -5 5 -10 10 -10 6 0 10 5 10 10 0 6 -4 10 -10 10 -5 0
-10 -4 -10 -10z"/>
<path d="M3608 4073 c7 -3 16 -2 19 1 4 3 -2 6 -13 5 -11 0 -14 -3 -6 -6z"/>
<path d="M2010 4054 c0 -8 5 -12 10 -9 6 3 10 10 10 16 0 5 -4 9 -10 9 -5 0
-10 -7 -10 -16z"/>
<path d="M2060 4060 c0 -5 4 -10 9 -10 6 0 13 5 16 10 3 6 -1 10 -9 10 -9 0
-16 -4 -16 -10z"/>
<path d="M2510 4060 c0 -5 7 -10 15 -10 8 0 15 5 15 10 0 6 -7 10 -15 10 -8 0
-15 -4 -15 -10z"/>
<path d="M2275 4050 c3 -5 8 -10 11 -10 2 0 4 5 4 10 0 6 -5 10 -11 10 -5 0
-7 -4 -4 -10z"/>
<path d="M2408 4053 c7 -3 16 -2 19 1 4 3 -2 6 -13 5 -11 0 -14 -3 -6 -6z"/>
<path d="M1840 4040 c0 -5 7 -10 16 -10 8 0 12 5 9 10 -3 6 -10 10 -16 10 -5
0 -9 -4 -9 -10z"/>
<path d="M2216 4031 c-4 -7 -5 -15 -2 -18 9 -9 19 4 14 18 -4 11 -6 11 -12 0z"/>
<path d="M2355 4030 c-3 -5 -1 -10 4 -10 6 0 11 5 11 10 0 6 -2 10 -4 10 -3 0
-8 -4 -11 -10z"/>
<path d="M2560 4020 c0 -5 5 -10 10 -10 6 0 10 5 10 10 0 6 -4 10 -10 10 -5 0
-10 -4 -10 -10z"/>
<path d="M2255 4010 c-3 -5 -1 -10 4 -10 6 0 11 5 11 10 0 6 -2 10 -4 10 -3 0
-8 -4 -11 -10z"/>
<path d="M2390 4010 c0 -5 5 -10 10 -10 6 0 10 5 10 10 0 6 -4 10 -10 10 -5 0
-10 -4 -10 -10z"/>
<path d="M2490 4010 c0 -5 7 -10 15 -10 8 0 15 5 15 10 0 6 -7 10 -15 10 -8 0
-15 -4 -15 -10z"/>
<path d="M2435 4000 c-3 -5 -2 -10 4 -10 5 0 13 5 16 10 3 6 2 10 -4 10 -5 0
-13 -4 -16 -10z"/>
<path d="M3476 3995 c4 -8 8 -15 10 -15 2 0 4 7 4 15 0 8 -4 15 -10 15 -5 0
-7 -7 -4 -15z"/>
<path d="M2368 3973 c7 -3 16 -2 19 1 4 3 -2 6 -13 5 -11 0 -14 -3 -6 -6z"/>
<path d="M2470 3960 c0 -5 5 -10 10 -10 6 0 10 5 10 10 0 6 -4 10 -10 10 -5 0
-10 -4 -10 -10z"/>
<path d="M2535 3960 c4 -6 11 -8 16 -5 14 9 11 15 -7 15 -8 0 -12 -5 -9 -10z"/>
<path d="M2195 3950 c-4 -6 -11 -7 -17 -4 -6 4 -9 1 -6 -7 8 -23 38 -23 38 0
0 23 -5 27 -15 11z"/>
<path d="M2410 3950 c0 -5 5 -10 10 -10 6 0 10 5 10 10 0 6 -4 10 -10 10 -5 0
-10 -4 -10 -10z"/>
<path d="M3470 3945 c0 -8 4 -15 10 -15 5 0 7 7 4 15 -4 8 -8 15 -10 15 -2 0
-4 -7 -4 -15z"/>
<path d="M2340 3940 c0 -5 7 -10 15 -10 8 0 15 5 15 10 0 6 -7 10 -15 10 -8 0
-15 -4 -15 -10z"/>
<path d="M2220 3921 c0 -6 5 -13 10 -16 6 -3 10 1 10 9 0 9 -4 16 -10 16 -5 0
-10 -4 -10 -9z"/>
<path d="M2261 3904 c0 -11 3 -14 6 -6 3 7 2 16 -1 19 -3 4 -6 -2 -5 -13z"/>
<path d="M2450 3910 c0 -5 5 -10 10 -10 6 0 10 5 10 10 0 6 -4 10 -10 10 -5 0
-10 -4 -10 -10z"/>
<path d="M2510 3910 c0 -5 5 -10 10 -10 6 0 10 5 10 10 0 6 -4 10 -10 10 -5 0
-10 -4 -10 -10z"/>
<path d="M2390 3900 c0 -5 5 -10 10 -10 6 0 10 5 10 10 0 6 -4 10 -10 10 -5 0
-10 -4 -10 -10z"/>
<path d="M2320 3890 c0 -5 5 -10 10 -10 6 0 10 5 10 10 0 6 -4 10 -10 10 -5 0
-10 -4 -10 -10z"/>
<path d="M2180 3880 c0 -5 7 -10 15 -10 8 0 15 5 15 10 0 6 -7 10 -15 10 -8 0
-15 -4 -15 -10z"/>
<path d="M3260 3860 c0 -5 5 -10 11 -10 5 0 7 5 4 10 -3 6 -8 10 -11 10 -2 0
-4 -4 -4 -10z"/>
<path d="M2430 3850 c0 -5 5 -10 10 -10 6 0 10 5 10 10 0 6 -4 10 -10 10 -5 0
-10 -4 -10 -10z"/>
<path d="M2365 3840 c3 -5 10 -10 16 -10 5 0 9 5 9 10 0 6 -7 10 -16 10 -8 0
-12 -4 -9 -10z"/>
<path d="M2190 3830 c0 -5 7 -10 16 -10 8 0 12 5 9 10 -3 6 -10 10 -16 10 -5
0 -9 -4 -9 -10z"/>
<path d="M2903 3823 c-18 -7 -16 -42 2 -49 8 -4 12 -10 9 -15 -3 -5 -1 -9 4
-9 10 0 22 33 22 63 0 17 -13 20 -37 10z"/>
<path d="M2256 3811 c-4 -7 -5 -15 -2 -18 9 -9 19 4 14 18 -4 11 -6 11 -12 0z"/>
<path d="M3526 3807 c3 -10 9 -15 12 -12 3 3 0 11 -7 18 -10 9 -11 8 -5 -6z"/>
<path d="M2410 3800 c0 -5 5 -10 10 -10 6 0 10 5 10 10 0 6 -4 10 -10 10 -5 0
-10 -4 -10 -10z"/>
<path d="M2465 3800 c3 -5 8 -10 11 -10 2 0 4 5 4 10 0 6 -5 10 -11 10 -5 0
-7 -4 -4 -10z"/>
<path d="M2350 3790 c0 -5 5 -10 11 -10 5 0 7 5 4 10 -3 6 -8 10 -11 10 -2 0
-4 -4 -4 -10z"/>
<path d="M2195 3780 c3 -5 10 -10 16 -10 5 0 9 5 9 10 0 6 -7 10 -16 10 -8 0
-12 -4 -9 -10z"/>
<path d="M2820 3780 c-13 -8 -12 -10 3 -10 9 0 17 5 17 10 0 12 -1 12 -20 0z"/>
<path d="M3385 3760 c-3 -5 -1 -10 4 -10 6 0 11 5 11 10 0 6 -2 10 -4 10 -3 0
-8 -4 -11 -10z"/>
<path d="M3534 3748 c3 -13 6 -30 6 -38 1 -12 3 -11 11 2 7 12 6 24 -1 38 -14
27 -24 25 -16 -2z"/>
<path d="M2260 3750 c0 -5 5 -10 10 -10 6 0 10 5 10 10 0 6 -4 10 -10 10 -5 0
-10 -4 -10 -10z"/>
<path d="M2310 3740 c0 -5 5 -10 11 -10 5 0 7 5 4 10 -3 6 -8 10 -11 10 -2 0
-4 -4 -4 -10z"/>
<path d="M2390 3739 c0 -5 5 -7 10 -4 6 3 10 8 10 11 0 2 -4 4 -10 4 -5 0 -10
-5 -10 -11z"/>
<path d="M3330 3739 c0 -5 5 -7 10 -4 6 3 10 8 10 11 0 2 -4 4 -10 4 -5 0 -10
-5 -10 -11z"/>
<path d="M2200 3729 c0 -5 5 -7 10 -4 6 3 10 8 10 11 0 2 -4 4 -10 4 -5 0 -10
-5 -10 -11z"/>
<path d="M2160 3695 c0 -8 4 -15 10 -15 5 0 7 7 4 15 -4 8 -8 15 -10 15 -2 0
-4 -7 -4 -15z"/>
<path d="M2430 3700 c0 -5 5 -10 10 -10 6 0 10 5 10 10 0 6 -4 10 -10 10 -5 0
-10 -4 -10 -10z"/>
<path d="M3300 3690 c0 -5 5 -10 10 -10 6 0 10 5 10 10 0 6 -4 10 -10 10 -5 0
-10 -4 -10 -10z"/>
<path d="M3245 3680 c-3 -5 -1 -10 4 -10 6 0 11 5 11 10 0 6 -2 10 -4 10 -3 0
-8 -4 -11 -10z"/>
<path d="M3100 3590 c0 -5 5 -10 11 -10 5 0 7 5 4 10 -3 6 -8 10 -11 10 -2 0
-4 -4 -4 -10z"/>
<path d="M2237 3566 c-4 -10 -3 -15 3 -11 6 3 10 1 10 -6 0 -7 3 -10 6 -6 3 3
2 13 -4 22 -8 16 -9 16 -15 1z"/>
<path d="M2251 3474 c0 -11 3 -14 6 -6 3 7 2 16 -1 19 -3 4 -6 -2 -5 -13z"/>
<path d="M3310 3465 c-7 -8 -17 -12 -24 -8 -17 11 -86 9 -87 -2 -2 -17 3 -40
10 -45 14 -11 42 -61 37 -69 -3 -4 10 -15 29 -24 40 -19 40 -19 21 18 -16 30
-9 69 19 112 19 28 15 42 -5 18z"/>
<path d="M3493 3462 c0 -12 5 -22 9 -22 11 0 10 12 -2 30 -7 12 -9 10 -7 -8z"/>
<path d="M2508 3443 c7 -3 16 -2 19 1 4 3 -2 6 -13 5 -11 0 -14 -3 -6 -6z"/>
<path d="M2821 3423 c-1 -17 -7 -23 -25 -23 -43 0 -86 12 -79 23 3 6 1 7 -6 3
-9 -6 -9 -11 1 -23 11 -14 8 -14 -22 1 l-35 17 35 -30 c20 -17 47 -31 62 -31
14 0 28 -5 30 -11 2 -7 16 -4 38 10 40 24 64 28 34 6 -17 -13 -17 -14 -1 -15
14 0 22 12 15 23 -1 1 4 12 10 24 11 20 10 21 -17 17 -22 -4 -30 -1 -34 13 -4
14 -5 13 -6 -4z"/>
<path d="M3516 3417 c3 -10 9 -15 12 -12 3 3 0 11 -7 18 -10 9 -11 8 -5 -6z"/>
<path d="M2425 3410 c3 -5 8 -10 11 -10 2 0 4 5 4 10 0 6 -5 10 -11 10 -5 0
-7 -4 -4 -10z"/>
<path d="M2938 3413 c-16 -2 -28 -8 -28 -13 0 -47 45 -55 52 -10 3 17 4 29 4
29 -1 -1 -13 -4 -28 -6z"/>
<path d="M3202 3370 c0 -14 2 -19 5 -12 2 6 2 18 0 25 -3 6 -5 1 -5 -13z"/>
<path d="M3200 3330 c0 -5 7 -7 15 -4 8 4 15 8 15 10 0 2 -7 4 -15 4 -8 0 -15
-4 -15 -10z"/>
<path d="M2750 3290 c0 -5 5 -10 11 -10 5 0 7 5 4 10 -3 6 -8 10 -11 10 -2 0
-4 -4 -4 -10z"/>
<path d="M2933 3283 c9 -2 23 -2 30 0 6 3 -1 5 -18 5 -16 0 -22 -2 -12 -5z"/>
<path d="M3210 3279 c0 -5 11 -9 25 -9 14 0 25 2 25 4 0 2 -11 6 -25 8 -14 3
-25 1 -25 -3z"/>
<path d="M3545 3280 c3 -5 8 -10 11 -10 2 0 4 5 4 10 0 6 -5 10 -11 10 -5 0
-7 -4 -4 -10z"/>
<path d="M3510 3260 c0 -5 5 -10 11 -10 5 0 7 5 4 10 -3 6 -8 10 -11 10 -2 0
-4 -4 -4 -10z"/>
<path d="M3380 3230 c0 -5 5 -10 11 -10 5 0 7 5 4 10 -3 6 -8 10 -11 10 -2 0
-4 -4 -4 -10z"/>
<path d="M3535 3179 c-9 -14 -2 -20 14 -10 8 6 9 11 3 15 -6 3 -14 1 -17 -5z"/>
<path d="M2270 3170 c0 -5 5 -10 10 -10 6 0 10 5 10 10 0 6 -4 10 -10 10 -5 0
-10 -4 -10 -10z"/>
<path d="M3380 3169 c0 -5 5 -7 10 -4 6 3 10 8 10 11 0 2 -4 4 -10 4 -5 0 -10
-5 -10 -11z"/>
<path d="M2300 3155 c0 -8 5 -15 10 -15 6 0 10 7 10 15 0 8 -4 15 -10 15 -5 0
-10 -7 -10 -15z"/>
<path d="M3325 3150 c4 -6 11 -8 16 -5 14 9 11 15 -7 15 -8 0 -12 -5 -9 -10z"/>
<path d="M2340 3134 c0 -8 5 -12 10 -9 6 3 10 10 10 16 0 5 -4 9 -10 9 -5 0
-10 -7 -10 -16z"/>
<path d="M2270 3120 c0 -5 5 -10 10 -10 6 0 10 5 10 10 0 6 -4 10 -10 10 -5 0
-10 -4 -10 -10z"/>
<path d="M2526 3113 c-11 -11 -6 -23 9 -23 8 0 15 4 15 9 0 13 -16 22 -24 14z"/>
<path d="M3290 3100 c0 -5 7 -10 15 -10 8 0 15 5 15 10 0 6 -7 10 -15 10 -8 0
-15 -4 -15 -10z"/>
<path d="M2355 3091 c-6 -11 9 -23 19 -14 9 9 7 23 -3 23 -6 0 -12 -4 -16 -9z"/>
<path d="M3381 3084 c0 -11 3 -14 6 -6 3 7 2 16 -1 19 -3 4 -6 -2 -5 -13z"/>
<path d="M2415 3079 c-10 -15 3 -25 16 -12 7 7 7 13 1 17 -6 3 -14 1 -17 -5z"/>
<path d="M2460 3070 c0 -5 6 -10 14 -10 8 0 18 5 21 10 3 6 -3 10 -14 10 -12
0 -21 -4 -21 -10z"/>
<path d="M2515 3060 c-8 -13 15 -13 35 0 12 8 11 10 -7 10 -12 0 -25 -4 -28
-10z"/>
<path d="M3330 3060 c0 -5 5 -10 10 -10 6 0 10 5 10 10 0 6 -4 10 -10 10 -5 0
-10 -4 -10 -10z"/>
<path d="M3265 3050 c-3 -5 1 -10 9 -10 9 0 16 5 16 10 0 6 -4 10 -9 10 -6 0
-13 -4 -16 -10z"/>
<path d="M3200 3040 c0 -5 4 -10 9 -10 6 0 13 5 16 10 3 6 -1 10 -9 10 -9 0
-16 -4 -16 -10z"/>
<path d="M3140 3030 c0 -5 5 -10 10 -10 6 0 10 5 10 10 0 6 -4 10 -10 10 -5 0
-10 -4 -10 -10z"/>
<path d="M3070 3020 c0 -5 7 -10 15 -10 8 0 15 5 15 10 0 6 -7 10 -15 10 -8 0
-15 -4 -15 -10z"/>
<path d="M3300 3020 c-13 -8 -12 -10 3 -10 9 0 17 5 17 10 0 12 -1 12 -20 0z"/>
<path d="M2708 2983 c-21 -5 -24 -23 -4 -23 8 0 16 7 20 15 3 8 4 14 3 14 -1
-1 -10 -3 -19 -6z"/>
<path d="M2768 2963 c7 -3 16 -2 19 1 4 3 -2 6 -13 5 -11 0 -14 -3 -6 -6z"/>
<path d="M1925 3960 c-3 -5 -1 -10 4 -10 6 0 11 5 11 10 0 6 -2 10 -4 10 -3 0
-8 -4 -11 -10z"/>
<path d="M1990 3939 c0 -5 5 -7 10 -4 6 3 10 8 10 11 0 2 -4 4 -10 4 -5 0 -10
-5 -10 -11z"/>
<path d="M2040 3934 c0 -8 5 -12 10 -9 6 3 10 10 10 16 0 5 -4 9 -10 9 -5 0
-10 -7 -10 -16z"/>
<path d="M1865 3930 c-3 -5 1 -10 10 -10 9 0 13 5 10 10 -3 6 -8 10 -10 10 -2
0 -7 -4 -10 -10z"/>
<path d="M1925 3910 c-3 -5 1 -10 10 -10 9 0 13 5 10 10 -3 6 -8 10 -10 10 -2
0 -7 -4 -10 -10z"/>
<path d="M162 6275 c0 -16 2 -22 5 -12 2 9 2 23 0 30 -3 6 -5 -1 -5 -18z"/>
<path d="M164 6055 c0 -104 2 -146 3 -92 2 54 2 139 0 190 -1 51 -3 7 -3 -98z"/>
<path d="M171 5574 c0 -11 3 -14 6 -6 3 7 2 16 -1 19 -3 4 -6 -2 -5 -13z"/>
<path d="M139 5057 c-36 -57 -94 -174 -119 -239 -18 -48 -20 -76 -20 -280 l0
-228 43 -1 c34 -2 37 -3 12 -7 -26 -4 -28 -5 -10 -12 l20 -9 -20 -1 c-17 -2
-16 -3 5 -10 24 -7 24 -7 -10 -17 -32 -8 -35 -12 -38 -53 -2 -28 1 -46 10 -51
10 -7 10 -9 1 -9 -9 0 -13 -22 -13 -75 0 -45 4 -75 10 -75 6 0 38 8 70 18 l60
17 0 46 c0 43 -2 46 -23 42 -22 -4 -23 -2 -19 26 5 37 9 38 23 9 l10 -23 -5
22 c-2 13 0 26 5 29 21 12 7 23 -23 18 -24 -4 -29 -3 -18 4 8 6 18 8 22 6 4
-3 8 0 8 5 0 6 -6 11 -14 11 -17 0 -31 18 -22 27 3 3 13 0 23 -8 11 -9 14 -10
9 -1 -4 7 -2 12 7 12 9 0 14 11 14 33 1 17 -1 26 -4 20 -6 -17 -23 -16 -23 1
0 8 7 16 15 20 18 7 21 66 3 66 -9 0 -9 3 0 12 18 18 15 38 -5 38 -13 0 -14 3
-6 8 8 5 12 31 12 69 -1 33 2 71 6 83 5 15 4 20 -4 16 -6 -4 -11 -2 -11 3 0 6
5 11 11 11 6 0 9 22 8 54 -2 49 -5 55 -28 62 l-26 7 25 7 25 8 -25 1 -24 1 22
16 c27 18 28 31 5 37 -16 4 -16 5 -1 6 13 1 17 12 17 56 0 32 -4 53 -10 50 -5
-4 -9 -1 -9 4 0 6 4 11 9 11 5 0 9 6 8 13 0 6 1 26 2 42 2 25 4 27 10 11 6
-16 9 -17 17 -5 7 12 18 89 11 89 -1 0 -14 -19 -28 -43z m-29 -501 c0 -2 -7
-7 -16 -10 -8 -3 -12 -2 -9 4 6 10 25 14 25 6z m7 -88 c-3 -8 -6 -5 -6 6 -1
11 2 17 5 13 3 -3 4 -12 1 -19z m-10 -399 c1 -9 -4 -19 -10 -22 -7 -2 -13 5
-13 18 -1 12 4 22 10 22 7 0 13 -8 13 -18z m20 -1 c-3 -8 -6 -5 -6 6 -1 11 2
17 5 13 3 -3 4 -12 1 -19z"/>
<path d="M192 4620 c0 -14 2 -19 5 -12 2 6 2 18 0 25 -3 6 -5 1 -5 -13z"/>
<path d="M75 3990 c3 -5 10 -10 16 -10 5 0 9 5 9 10 0 6 -7 10 -16 10 -8 0
-12 -4 -9 -10z"/>
<path d="M40 3980 c0 -7 -8 -9 -20 -5 -22 7 -29 -20 -7 -28 10 -4 10 -6 0 -6
-9 -1 -13 -18 -13 -52 0 -42 3 -52 20 -56 11 -3 17 -10 13 -16 -3 -6 -1 -7 6
-3 6 4 10 15 9 24 -2 10 4 17 12 18 8 0 32 6 53 14 35 13 37 16 31 50 -10 62
-10 62 -44 45 -17 -9 -39 -14 -48 -12 -15 4 -15 5 1 6 10 0 17 6 15 13 -6 16
-28 23 -28 8z m60 -56 c0 -10 6 -14 15 -10 8 3 15 2 15 -2 0 -12 -68 -34 -80
-27 -16 10 -11 43 8 48 33 9 42 7 42 -9z"/>
<path d="M60 3920 c-12 -8 -10 -10 8 -10 13 0 20 4 17 10 -7 12 -6 12 -25 0z"/>
<path d="M95 3840 c-3 -5 -1 -10 4 -10 6 0 11 5 11 10 0 6 -2 10 -4 10 -3 0
-8 -4 -11 -10z"/>
<path d="M5 3670 c3 -5 8 -10 11 -10 2 0 4 5 4 10 0 6 -5 10 -11 10 -5 0 -7
-4 -4 -10z"/>
<path d="M80 3486 c0 -2 7 -6 15 -10 8 -3 15 -1 15 4 0 6 -7 10 -15 10 -8 0
-15 -2 -15 -4z"/>
<path d="M3480 2930 c0 -5 5 -10 11 -10 5 0 7 5 4 10 -3 6 -8 10 -11 10 -2 0
-4 -4 -4 -10z"/>
<path d="M2290 2910 c0 -5 5 -10 11 -10 5 0 7 5 4 10 -3 6 -8 10 -11 10 -2 0
-4 -4 -4 -10z"/>
<path d="M3357 2829 c7 -7 15 -10 18 -7 3 3 -2 9 -12 12 -14 6 -15 5 -6 -5z"/>
<path d="M2523 2813 c9 -2 23 -2 30 0 6 3 -1 5 -18 5 -16 0 -22 -2 -12 -5z"/>
<path d="M2260 2771 c-15 -38 -5 -58 19 -37 10 9 21 13 24 9 10 -10 8 3 -5 32
-15 32 -23 32 -38 -4z m30 -1 c0 -5 -4 -10 -10 -10 -5 0 -10 5 -10 10 0 6 5
10 10 10 6 0 10 -4 10 -10z"/>
<path d="M2525 2760 c44 -20 133 -43 119 -31 -10 9 -140 52 -152 50 -4 0 11
-9 33 -19z"/>
<path d="M2718 2773 c7 -3 16 -2 19 1 4 3 -2 6 -13 5 -11 0 -14 -3 -6 -6z"/>
<path d="M3268 2763 c7 -3 16 -2 19 1 4 3 -2 6 -13 5 -11 0 -14 -3 -6 -6z"/>
<path d="M3140 2730 c-14 -11 -20 -20 -14 -20 14 0 50 27 44 33 -3 3 -16 -3
-30 -13z"/>
<path d="M2845 2690 c27 -12 43 -12 25 0 -8 5 -22 9 -30 9 -10 0 -8 -3 5 -9z"/>
<path d="M3063 2693 c9 -2 23 -2 30 0 6 3 -1 5 -18 5 -16 0 -22 -2 -12 -5z"/>
<path d="M3150 2315 c-28 -25 -60 -45 -72 -45 -12 0 -31 -9 -43 -20 -19 -18
-24 -19 -34 -6 -7 8 -16 36 -21 63 l-8 48 -1 -52 c-1 -36 -5 -52 -13 -50 -8 1
-11 -10 -9 -35 4 -51 -6 -48 -20 7 -6 25 -17 45 -24 45 -16 0 -14 -32 3 -43
14 -9 17 -37 4 -37 -5 0 -19 9 -32 20 -14 12 -31 18 -42 14 -10 -3 -18 -1 -18
4 0 33 -166 46 -191 15 -12 -15 -12 -16 3 -10 10 3 20 2 23 -2 7 -13 -77 -23
-132 -17 -35 4 -41 3 -23 -3 14 -5 69 -9 123 -10 57 -1 97 -5 97 -11 0 -5 -8
-11 -17 -11 -10 -1 -2 -4 17 -8 27 -5 34 -10 32 -25 -3 -16 1 -18 30 -12 18 3
47 2 63 -3 l30 -8 -35 -7 c-19 -4 -54 -16 -77 -27 -23 -10 -60 -21 -82 -25
-38 -6 -60 -27 -41 -39 6 -4 10 -1 10 4 0 6 11 11 25 11 14 0 25 4 25 10 0 5
10 9 23 9 27 -1 48 4 65 14 19 12 14 -4 -5 -19 -17 -13 -17 -13 0 -14 9 0 17
-4 17 -9 0 -6 -12 -6 -32 0 -42 12 -43 12 -29 -4 6 -8 9 -16 6 -19 -3 -2 16
-3 41 -2 32 2 44 -1 41 -9 -2 -7 -11 -11 -20 -11 -9 1 -13 -4 -10 -13 3 -7 2
-13 -3 -11 -5 1 -31 -12 -59 -30 -27 -17 -45 -32 -39 -32 5 0 14 4 20 9 5 5
27 12 49 15 26 5 35 4 26 -3 -15 -10 -11 -24 25 -108 8 -17 14 -35 14 -40 0
-4 5 -15 10 -23 8 -13 11 -12 25 5 13 15 12 12 -2 -15 -10 -19 -24 -41 -32
-50 -13 -13 -12 -15 11 -18 20 -2 27 -10 32 -34 10 -49 6 -55 -12 -23 l-17 30
-3 -25 c-2 -14 -8 -29 -14 -35 -8 -7 -9 -6 -4 3 5 8 -2 14 -23 18 -16 3 -43
19 -59 36 l-30 29 -20 -21 c-20 -22 -20 -22 -27 -1 -3 11 -15 23 -25 26 -35
11 -80 62 -80 90 0 21 -4 26 -16 21 -9 -3 -27 -6 -40 -6 -13 0 -24 -4 -24 -10
0 -5 9 -10 19 -10 12 0 21 -9 25 -25 3 -13 17 -36 31 -51 14 -15 30 -44 37
-66 12 -40 28 -51 28 -19 0 22 19 39 21 19 1 -7 1 -16 1 -19 -1 -4 6 -6 15 -5
9 0 18 -5 20 -11 3 -8 -4 -13 -16 -13 -12 0 -21 -4 -21 -10 0 -15 17 -12 46 6
19 13 22 19 13 31 -16 18 3 38 26 29 14 -5 15 -9 6 -20 -10 -12 -8 -13 9 -9
20 5 21 4 9 -15 -15 -24 -6 -40 13 -25 7 6 21 10 31 10 13 0 16 -6 11 -21 -6
-19 -5 -19 15 3 25 29 28 16 4 -19 l-17 -25 27 18 c15 9 27 15 27 12 0 -13
-22 -46 -55 -82 -19 -21 -35 -46 -35 -55 0 -10 -4 -18 -8 -18 -5 0 -17 -21
-28 -46 -18 -44 -20 -45 -59 -43 -22 1 -48 -2 -58 -6 -22 -9 -57 20 -57 49 0
12 -4 26 -8 33 -8 13 -6 -131 2 -153 3 -8 12 -14 21 -14 19 0 19 -3 -5 -47
-17 -31 -18 -39 -6 -45 17 -10 62 -95 54 -103 -7 -7 -78 89 -94 126 -7 15 -17
30 -23 33 -6 4 -11 18 -11 32 0 13 -5 24 -11 24 -6 0 -8 8 -4 19 4 14 0 21
-16 26 -19 6 -20 12 -15 53 l5 47 -14 -50 c-17 -58 -19 -78 -6 -71 5 4 7 -3 4
-14 -3 -10 2 -62 11 -115 9 -53 16 -135 15 -183 -2 -72 3 -99 24 -156 21 -58
23 -71 12 -82 -7 -8 -15 -10 -17 -5 -2 5 -16 7 -33 4 -26 -6 -27 -7 -10 -15
15 -6 14 -7 -5 -2 -14 4 -36 7 -50 6 -45 0 -140 -15 -136 -21 2 -3 -17 -7 -42
-7 -89 -3 -157 -10 -170 -17 -7 -5 -21 -5 -32 -2 -32 10 -120 -23 -130 -49 -9
-24 -83 -101 -105 -110 -8 -3 -15 -11 -15 -18 0 -10 2 -10 9 1 5 8 11 9 15 3
3 -5 -1 -15 -10 -22 -8 -7 -13 -19 -10 -26 3 -8 2 -13 -2 -13 -25 4 -32 -4
-32 -36 0 -29 4 -35 22 -35 21 0 21 0 2 15 -15 11 -16 14 -4 15 9 0 32 -18 52
-39 19 -22 73 -61 119 -87 46 -26 86 -51 89 -54 3 -4 28 -18 55 -31 59 -30
130 -72 196 -117 l49 -32 624 2 625 3 -28 55 c-15 30 -41 89 -56 130 -16 41
-35 83 -43 92 -10 12 -11 21 -3 37 6 11 11 28 11 38 0 36 24 73 47 73 34 0 43
47 14 69 -18 14 -21 25 -19 68 2 28 6 49 9 47 10 -6 38 114 32 136 -3 11 -1
20 5 20 5 0 12 12 15 27 3 16 18 64 33 107 21 58 26 80 17 83 -7 3 -13 14 -14
26 0 21 -1 20 -11 -3 l-11 -25 -7 25 c-6 19 -8 21 -9 6 -2 -39 -11 -7 -26 88
-16 108 -26 128 -64 125 -14 -1 -38 1 -53 5 -21 6 -26 14 -26 36 1 19 -11 40
-35 66 -75 82 -201 271 -213 319 -7 27 -6 29 9 16 9 -7 14 -17 11 -22 -3 -5 2
-12 10 -15 9 -3 16 -15 16 -26 0 -10 5 -16 10 -13 6 3 10 -1 10 -9 0 -9 4 -16
8 -16 5 0 18 -17 30 -37 32 -56 70 -95 84 -87 6 4 8 3 5 -3 -7 -11 18 -36 45
-46 13 -5 15 -2 11 11 -7 20 -57 94 -76 114 -25 26 -77 102 -77 113 0 6 -8 20
-17 31 -23 26 -56 84 -51 90 3 2 11 -7 18 -21 7 -14 19 -25 27 -25 7 0 13 -9
13 -21 0 -11 4 -18 10 -14 5 3 7 12 3 20 -3 8 -1 15 5 15 6 0 8 9 5 20 -3 11
0 20 6 20 18 0 -5 38 -51 84 -21 22 -36 41 -33 44 3 3 13 -4 22 -15 10 -11 29
-26 42 -33 21 -11 23 -10 18 3 -3 8 0 18 7 20 17 7 9 59 -10 70 -21 12 -17 29
5 22 16 -5 18 -2 14 15 -6 23 15 28 35 8 7 -7 12 -8 12 -3 0 14 -92 75 -113
75 -9 0 -17 5 -17 10 0 13 26 13 52 -1 11 -6 22 -8 25 -5 3 3 -6 10 -21 15
-39 15 -32 19 17 10 23 -4 69 -8 102 -7 35 1 45 3 25 5 -28 3 -125 21 -150 28
-3 1 -23 5 -45 10 -22 4 -53 14 -70 22 l-30 13 38 -6 c25 -4 43 -2 54 7 11 10
59 16 152 20 106 4 119 6 56 8 -89 2 -152 20 -147 41 2 7 -3 17 -10 21 -10 7
-10 9 1 9 8 0 22 7 32 16 9 8 42 17 75 20 76 5 88 20 24 28 -34 5 -48 11 -44
18 5 8 1 9 -10 5 -11 -5 -31 1 -51 13 l-34 21 -51 -46z m-3 -111 c-3 -3 -12
-4 -19 -1 -8 3 -5 6 6 6 11 1 17 -2 13 -5z m-60 -596 c-3 -7 -5 -2 -5 12 0 14
2 19 5 13 2 -7 2 -19 0 -25z m-205 -50 c-7 -7 -12 -8 -12 -2 0 14 12 26 19 19
2 -3 -1 -11 -7 -17z m185 6 c-3 -3 -12 -4 -19 -1 -8 3 -5 6 6 6 11 1 17 -2 13
-5z m-107 -29 c0 -8 -9 -15 -20 -15 -13 0 -18 5 -14 15 4 8 12 15 20 15 8 0
14 -7 14 -15z m126 8 c-7 -7 -87 -5 -95 3 -2 2 20 4 49 4 29 0 50 -3 46 -7z
m38 -38 c5 -22 4 -26 -4 -15 -5 8 -10 24 -10 34 0 26 6 18 14 -19z m-78 15 c8
0 14 -10 14 -25 0 -31 -18 -32 -54 -4 -21 17 -25 24 -14 30 7 5 19 7 26 4 8
-3 20 -5 28 -5z m44 -24 c0 -14 -4 -28 -10 -31 -6 -4 -10 7 -10 24 0 17 5 31
10 31 6 0 10 -11 10 -24z m79 -36 c11 -9 61 -79 61 -85 0 -11 -49 30 -50 41 0
5 -9 20 -21 32 -11 13 -17 27 -13 34 6 9 9 8 12 -2 3 -8 8 -17 11 -20z m-289
0 c0 -5 -5 -10 -11 -10 -5 0 -7 5 -4 10 3 6 8 10 11 10 2 0 4 -4 4 -10z m-50
-77 c-16 -32 -30 -64 -30 -70 0 -7 -7 -13 -15 -13 -8 0 -15 -4 -15 -10 0 -5
-7 -10 -15 -10 -23 0 -18 11 20 49 18 18 36 45 40 60 7 29 23 51 37 51 5 0 -5
-26 -22 -57z m57 25 c-3 -7 -5 -2 -5 12 0 14 2 19 5 13 2 -7 2 -19 0 -25z
m266 -144 c29 -5 37 -11 37 -28 0 -25 -69 -481 -78 -517 l-7 -27 -47 16 c-27
8 -48 18 -48 21 0 4 -15 5 -34 3 l-34 -4 -6 59 c-3 32 -11 77 -16 101 -6 23
-10 51 -10 62 0 11 -4 20 -8 20 -4 0 -9 42 -10 93 -1 50 -5 100 -8 110 -3 10
-3 36 1 57 l7 40 111 0 c62 0 129 -3 150 -6z m-696 -36 c-3 -7 -5 -2 -5 12 0
14 2 19 5 13 2 -7 2 -19 0 -25z m588 -568 c3 -5 16 -10 28 -11 20 -1 20 -2 -3
-9 -41 -13 -50 -11 -50 10 0 21 15 27 25 10z m-870 -40 c3 -5 1 -10 -4 -10 -6
0 -11 5 -11 10 0 6 2 10 4 10 3 0 8 -4 11 -10z m831 -12 c4 -7 4 -10 -1 -6 -4
4 -14 3 -22 -3 -8 -8 -13 -8 -13 -1 0 6 6 13 13 15 6 3 13 6 14 6 1 1 5 -5 9
-11z m67 -7 c4 -1 7 -5 7 -10 0 -5 -8 -8 -17 -6 -10 2 -21 4 -25 4 -5 1 -8 5
-8 10 0 5 8 8 18 6 9 -2 20 -4 25 -4z m34 -43 c-3 -7 -5 -2 -5 12 0 14 2 19 5
13 2 -7 2 -19 0 -25z m-72 2 c3 -11 11 -20 16 -20 5 0 9 -6 9 -14 0 -9 7 -12
19 -9 29 7 35 -56 10 -110 l-20 -42 4 45 c2 25 6 52 9 60 2 8 3 12 1 8 -3 -5
-11 -8 -19 -8 -9 0 -13 4 -9 10 9 14 -50 75 -64 66 -9 -6 -9 -11 0 -22 6 -8 9
-17 5 -21 -10 -10 -35 29 -36 55 0 19 5 22 34 22 26 0 36 -5 41 -20z m-780 0
c3 -5 1 -10 -4 -10 -6 0 -11 5 -11 10 0 6 2 10 4 10 3 0 8 -4 11 -10z m275
-54 c0 -3 -4 -8 -10 -11 -5 -3 -10 -1 -10 4 0 6 5 11 10 11 6 0 10 -2 10 -4z
m-320 -38 c0 -6 -7 -5 -15 2 -8 7 -15 17 -15 22 0 6 7 5 15 -2 8 -7 15 -17 15
-22z m830 -12 c0 -2 -7 -6 -15 -10 -8 -3 -15 -1 -15 4 0 6 7 10 15 10 8 0 15
-2 15 -4z m-865 -16 c4 -6 -12 -9 -42 -9 l-48 2 40 7 c22 4 41 8 42 9 1 0 5
-3 8 -9z m875 -21 c0 -4 -11 -9 -25 -11 -15 -3 -25 -1 -25 6 0 6 11 11 25 11
14 0 25 -3 25 -6z m15 -113 c0 -30 -3 -49 -7 -43 -4 7 -8 20 -8 30 0 9 -5 17
-11 17 -6 0 -3 7 5 16 9 8 16 20 16 25 0 5 1 9 3 9 1 0 2 -24 2 -54z m-881 13
c22 -17 37 -59 21 -59 -8 0 -64 64 -65 73 0 13 17 8 44 -14z"/>
<path d="M2928 1253 c7 -3 16 -2 19 1 4 3 -2 6 -13 5 -11 0 -14 -3 -6 -6z"/>
<path d="M2988 1253 c6 -2 18 -2 25 0 6 3 1 5 -13 5 -14 0 -19 -2 -12 -5z"/>
<path d="M3080 435 c0 -8 2 -15 4 -15 2 0 6 7 10 15 3 8 1 15 -4 15 -6 0 -10
-7 -10 -15z"/>
<path d="M2901 2337 c-6 -8 -8 -17 -4 -20 3 -4 1 -7 -5 -7 -7 0 -12 -4 -12
-10 0 -5 9 -10 21 -10 14 0 19 5 16 15 -4 8 -2 17 3 20 12 8 13 25 1 25 -5 0
-14 -6 -20 -13z"/>
<path d="M3000 2275 c0 -5 5 -17 10 -25 5 -8 10 -10 10 -5 0 6 -5 17 -10 25
-5 8 -10 11 -10 5z"/>
<path d="M2408 2253 c6 -2 18 -2 25 0 6 3 1 5 -13 5 -14 0 -19 -2 -12 -5z"/>
<path d="M2452 2255 c7 -7 158 -8 165 -1 4 3 -33 6 -82 6 -49 0 -86 -2 -83 -5z"/>
<path d="M281 2164 c0 -11 3 -14 6 -6 3 7 2 16 -1 19 -3 4 -6 -2 -5 -13z"/>
<path d="M2697 2133 c-3 -5 1 -14 9 -21 12 -11 14 -9 14 8 0 20 -14 27 -23 13z"/>
<path d="M2750 1990 c-8 -5 -11 -12 -7 -16 4 -4 15 0 24 9 18 18 8 23 -17 7z"/>
<path d="M2640 1973 c0 -15 18 -35 23 -27 3 5 -1 15 -9 22 -8 7 -14 9 -14 5z"/>
<path d="M2710 1960 c-9 -6 -10 -10 -3 -10 6 0 15 5 18 10 8 12 4 12 -15 0z"/>
<path d="M2645 1920 c-3 -5 -2 -10 4 -10 5 0 13 5 16 10 3 6 2 10 -4 10 -5 0
-13 -4 -16 -10z"/>
<path d="M2311 1874 c0 -11 3 -14 6 -6 3 7 2 16 -1 19 -3 4 -6 -2 -5 -13z"/>
<path d="M2650 1880 c0 -5 5 -10 10 -10 6 0 10 5 10 10 0 6 -4 10 -10 10 -5 0
-10 -4 -10 -10z"/>
<path d="M2498 1843 c12 -2 32 -2 45 0 12 2 2 4 -23 4 -25 0 -35 -2 -22 -4z"/>
<path d="M321 1774 c0 -11 3 -14 6 -6 3 7 2 16 -1 19 -3 4 -6 -2 -5 -13z"/>
<path d="M2641 1745 c-1 -26 14 -49 27 -41 6 3 15 -2 21 -11 15 -26 13 -11 -3
27 -11 28 -14 30 -21 14 -7 -17 -9 -17 -15 6 -7 20 -8 21 -9 5z"/>
<path d="M2311 1724 c0 -11 3 -14 6 -6 3 7 2 16 -1 19 -3 4 -6 -2 -5 -13z"/>
<path d="M2 1605 c0 -16 2 -22 5 -12 2 9 2 23 0 30 -3 6 -5 -1 -5 -18z"/>
<path d="M2746 1504 c-10 -26 -7 -36 8 -31 18 7 10 -20 -12 -43 -13 -12 -14
-11 -8 8 4 12 3 22 -2 22 -6 0 -9 -22 -9 -48 2 -41 4 -46 14 -33 7 9 13 20 13
24 0 7 7 17 36 50 18 21 24 47 11 44 -7 -1 -11 4 -9 11 3 18 -35 15 -42 -4z"/>
<path d="M3622 1370 c0 -14 2 -19 5 -12 2 6 2 18 0 25 -3 6 -5 1 -5 -13z"/>
<path d="M1928 1273 c7 -3 16 -2 19 1 4 3 -2 6 -13 5 -11 0 -14 -3 -6 -6z"/>
<path d="M2290 1270 c20 -13 33 -13 25 0 -3 6 -14 10 -23 10 -15 0 -15 -2 -2
-10z"/>
<path d="M1220 1260 c0 -5 7 -10 15 -10 8 0 15 5 15 10 0 6 -7 10 -15 10 -8 0
-15 -4 -15 -10z"/>
<path d="M1378 1263 c7 -3 16 -2 19 1 4 3 -2 6 -13 5 -11 0 -14 -3 -6 -6z"/>
<path d="M1458 1263 c7 -3 16 -2 19 1 4 3 -2 6 -13 5 -11 0 -14 -3 -6 -6z"/>
<path d="M2193 1263 c9 -2 23 -2 30 0 6 3 -1 5 -18 5 -16 0 -22 -2 -12 -5z"/>
<path d="M1260 1248 c0 -7 32 -12 53 -9 4 1 19 2 32 3 42 4 16 13 -36 13 -27
0 -49 -3 -49 -7z"/>
<path d="M1415 1240 c3 -5 13 -10 21 -10 8 0 12 5 9 10 -3 6 -13 10 -21 10 -8
0 -12 -4 -9 -10z"/>
<path d="M3940 1226 c0 -9 30 -14 35 -6 4 6 -3 10 -14 10 -12 0 -21 -2 -21 -4z"/>
<path d="M3555 1210 c-3 -5 1 -10 10 -10 9 0 13 5 10 10 -3 6 -8 10 -10 10 -2
0 -7 -4 -10 -10z"/>
<path d="M3668 1213 c7 -3 16 -2 19 1 4 3 -2 6 -13 5 -11 0 -14 -3 -6 -6z"/>
<path d="M3790 1210 c-24 -8 -23 -8 8 -9 17 -1 32 4 32 9 0 11 -5 11 -40 0z"/>
<path d="M4160 1210 c47 -5 98 -17 113 -26 34 -19 44 -14 18 10 -15 13 -42 18
-118 21 l-98 4 85 -9z"/>
<path d="M3868 1203 c6 -2 18 -2 25 0 6 3 1 5 -13 5 -14 0 -19 -2 -12 -5z"/>
<path d="M4451 1201 c-7 -5 -31 -6 -52 -4 -23 3 -39 1 -39 -4 0 -6 21 -13 48
-17 57 -8 349 -29 377 -27 54 4 146 2 195 -2 95 -10 144 -11 168 -3 13 4 28 3
35 -3 8 -6 18 -6 27 -1 12 7 11 10 -5 15 -11 4 -28 11 -37 16 -10 5 -46 8 -80
8 -35 -1 -55 -3 -45 -6 22 -6 12 -23 -14 -23 -11 0 -17 5 -14 10 4 7 -2 9 -18
5 -18 -5 -28 -2 -37 12 -10 16 -11 16 -6 1 6 -21 -2 -22 -39 -8 -17 7 -24 7
-20 0 3 -6 -1 -10 -9 -10 -9 0 -15 6 -14 13 2 7 -5 11 -17 9 -36 -6 -67 -4
-74 5 -3 5 -50 9 -103 8 -54 0 -98 2 -98 5 0 10 -114 10 -129 1z m74 -11 c15
-6 7 -9 -30 -8 -39 0 -45 2 -25 8 32 10 31 10 55 0z m155 -16 c0 -2 -9 -4 -20
-4 -11 0 -20 4 -20 9 0 5 9 7 20 4 11 -3 20 -7 20 -9z m-53 0 c-3 -3 -12 -4
-19 -1 -8 3 -5 6 6 6 11 1 17 -2 13 -5z m143 -4 c0 -13 -20 -13 -40 0 -12 8
-9 10 13 10 15 0 27 -4 27 -10z"/>
<path d="M1068 1193 c7 -3 16 -2 19 1 4 3 -2 6 -13 5 -11 0 -14 -3 -6 -6z"/>
<path d="M3520 1146 c0 -62 10 -105 24 -100 14 5 30 -6 42 -29 7 -13 11 0 12
50 2 36 5 70 8 75 4 5 -2 9 -12 8 -39 -4 -49 -1 -36 12 19 19 14 28 -13 28
-23 0 -25 -4 -25 -44z m40 -46 c0 -5 -4 -10 -10 -10 -5 0 -10 5 -10 10 0 6 5
10 10 10 6 0 10 -4 10 -10z m30 -24 c0 -3 -4 -8 -10 -11 -5 -3 -10 -1 -10 4 0
6 5 11 10 11 6 0 10 -2 10 -4z"/>
<path d="M4918 1183 c7 -3 16 -2 19 1 4 3 -2 6 -13 5 -11 0 -14 -3 -6 -6z"/>
<path d="M5265 1160 c-18 -8 -17 -9 8 -9 15 -1 27 4 27 9 0 12 -8 12 -35 0z"/>
<path d="M5320 1160 c0 -5 5 -10 10 -10 6 0 10 5 10 10 0 6 -4 10 -10 10 -5 0
-10 -4 -10 -10z"/>
<path d="M1098 1143 c7 -3 16 -2 19 1 4 3 -2 6 -13 5 -11 0 -14 -3 -6 -6z"/>
<path d="M5265 1130 c-3 -5 -1 -10 4 -10 6 0 11 5 11 10 0 6 -2 10 -4 10 -3 0
-8 -4 -11 -10z"/>
<path d="M1062 1089 c-32 -16 -33 -18 -14 -28 11 -6 28 -8 38 -4 12 5 15 3 9
-6 -4 -7 -18 -11 -31 -8 -13 2 -24 1 -24 -4 0 -4 10 -9 23 -12 19 -3 18 -5
-10 -12 -18 -4 -33 -11 -33 -16 0 -5 -7 -9 -15 -9 -8 0 -15 -7 -15 -15 0 -23
-18 -18 -22 7 -2 12 -9 23 -16 24 -7 1 -8 0 -2 -3 5 -2 10 -11 10 -19 0 -10
-8 -12 -29 -8 -17 4 -32 1 -36 -5 -5 -8 1 -10 21 -5 21 5 25 4 19 -6 -5 -8 -4
-11 3 -6 6 3 13 2 17 -4 3 -5 -2 -10 -12 -10 -13 0 -15 -2 -5 -9 7 -4 30 -3
52 2 31 9 41 8 55 -6 9 -10 14 -23 12 -30 -4 -9 -6 -9 -6 1 -1 15 -37 16 -47
0 -5 -8 0 -9 14 -6 13 4 20 2 16 -4 -3 -5 -15 -8 -25 -5 -11 3 -29 -3 -42 -13
l-22 -19 33 5 c20 3 32 1 32 -6 0 -8 9 -10 26 -6 36 9 51 26 46 53 -3 19 0 23
19 24 15 1 8 5 -16 9 -35 6 -37 7 -10 9 23 1 27 3 15 11 -13 8 -13 10 2 10 9
0 20 -4 23 -10 3 -5 18 -10 33 -9 l27 1 -26 9 c-20 7 -26 15 -22 29 6 23 23
27 23 5 0 -8 5 -15 10 -15 6 0 10 7 10 15 0 23 18 18 23 -7 4 -20 4 -20 6 4 1
31 -18 38 -67 25 -36 -9 -56 -2 -33 12 7 5 13 12 14 17 1 5 9 7 19 6 9 -2 19
2 23 8 4 6 -3 9 -17 7 -15 -1 -23 3 -23 13 0 10 8 14 23 12 12 -2 22 2 22 7 0
6 -6 11 -12 12 -7 0 -22 2 -33 3 -11 1 -35 -6 -53 -15z m-19 -104 c-3 -9 -8
-14 -10 -11 -3 3 -2 9 2 15 9 16 15 13 8 -4z m77 -5 c0 -5 -4 -10 -9 -10 -6 0
-13 5 -16 10 -3 6 1 10 9 10 9 0 16 -4 16 -10z m-60 -104 c0 -2 -7 -7 -16 -10
-8 -3 -12 -2 -9 4 6 10 25 14 25 6z"/>
<path d="M985 1060 c-3 -5 1 -10 9 -10 9 0 16 5 16 10 0 6 -4 10 -9 10 -6 0
-13 -4 -16 -10z"/>
<path d="M810 1040 l-25 -8 25 -1 c14 0 32 4 40 9 13 9 13 10 0 9 -8 -1 -26
-5 -40 -9z"/>
<path d="M1165 1040 c-3 -5 1 -10 9 -10 9 0 16 5 16 10 0 6 -4 10 -9 10 -6 0
-13 -4 -16 -10z"/>
<path d="M925 1030 c-18 -8 -17 -9 7 -9 15 -1 30 4 33 9 7 12 -12 12 -40 0z"/>
<path d="M877 1019 c7 -7 15 -10 18 -7 3 3 -2 9 -12 12 -14 6 -15 5 -6 -5z"/>
<path d="M828 993 c12 -2 32 -2 45 0 12 2 2 4 -23 4 -25 0 -35 -2 -22 -4z"/>
<path d="M738 983 c-29 -7 -20 -18 15 -18 17 0 34 5 37 10 5 11 -25 16 -52 8z"/>
<path d="M800 929 c0 -5 5 -7 10 -4 6 3 10 8 10 11 0 2 -4 4 -10 4 -5 0 -10
-5 -10 -11z"/>
<path d="M860 931 c0 -5 -8 -11 -17 -13 -11 -3 -6 -6 12 -9 25 -4 31 -1 31 13
0 10 -6 18 -13 18 -7 0 -13 -4 -13 -9z"/>
<path d="M980 920 c-14 -4 -37 -5 -52 -2 -17 3 -28 0 -28 -7 0 -6 14 -11 31
-11 28 0 30 -2 18 -17 -13 -15 -12 -15 9 -2 14 9 18 15 10 18 -7 2 5 10 27 17
22 6 33 12 25 12 -8 0 -26 -3 -40 -8z"/>
<path d="M1157 923 c18 -2 50 -2 70 0 21 2 7 4 -32 4 -38 0 -55 -2 -38 -4z"/>
<path d="M753 913 c9 -2 23 -2 30 0 6 3 -1 5 -18 5 -16 0 -22 -2 -12 -5z"/>
<path d="M911 876 c-16 -19 -11 -29 8 -17 7 5 12 14 9 21 -3 9 -8 7 -17 -4z"/>
<path d="M870 835 c0 -7 -6 -16 -12 -19 -7 -3 -2 -3 12 0 36 9 45 20 21 27
-14 3 -21 0 -21 -8z"/>
<path d="M745 830 c-3 -5 3 -10 14 -10 12 0 21 5 21 10 0 6 -6 10 -14 10 -8 0
-18 -4 -21 -10z"/>
<path d="M951 828 c-1 -12 -6 -16 -18 -11 -15 5 -14 3 2 -10 17 -13 20 -14 23
-1 2 8 1 20 -1 27 -3 7 -6 5 -6 -5z"/>
<path d="M753 780 c-1 -18 3 -30 10 -31 7 -1 26 -3 42 -5 17 -2 37 -1 45 2 13
4 13 6 0 14 -8 6 -25 10 -37 10 -13 0 -23 5 -23 11 0 5 4 8 8 5 4 -2 14 -1 22
4 12 7 10 9 -5 8 -11 -1 -29 2 -40 5 -17 6 -20 2 -22 -23z"/>
<path d="M603 793 c9 -2 25 -2 35 0 9 3 1 5 -18 5 -19 0 -27 -2 -17 -5z"/>
<path d="M910 790 c0 -5 5 -10 10 -10 6 0 10 5 10 10 0 6 -4 10 -10 10 -5 0
-10 -4 -10 -10z"/>
<path d="M1088 773 c6 -2 18 -2 25 0 6 3 1 5 -13 5 -14 0 -19 -2 -12 -5z"/>
<path d="M1218 763 c7 -3 16 -2 19 1 4 3 -2 6 -13 5 -11 0 -14 -3 -6 -6z"/>
<path d="M875 700 c-3 -5 -1 -10 4 -10 6 0 11 5 11 10 0 6 -2 10 -4 10 -3 0
-8 -4 -11 -10z"/>
<path d="M1328 693 c7 -3 16 -2 19 1 4 3 -2 6 -13 5 -11 0 -14 -3 -6 -6z"/>
<path d="M438 633 c7 -3 16 -2 19 1 4 3 -2 6 -13 5 -11 0 -14 -3 -6 -6z"/>
<path d="M305 500 c-3 -5 1 -10 9 -10 9 0 16 5 16 10 0 6 -4 10 -9 10 -6 0
-13 -4 -16 -10z"/>
<path d="M1048 473 c7 -3 16 -2 19 1 4 3 -2 6 -13 5 -11 0 -14 -3 -6 -6z"/>
<path d="M606 453 c-6 -14 -5 -15 5 -6 7 7 10 15 7 18 -3 3 -9 -2 -12 -12z"/>
<path d="M550 430 c0 -5 -17 -10 -37 -10 -30 0 -35 -3 -23 -11 12 -8 10 -10
-10 -6 -53 11 -145 19 -139 13 14 -14 202 -29 194 -16 -4 6 0 10 8 10 8 0 17
7 21 15 3 8 1 15 -4 15 -6 0 -10 -4 -10 -10z"/>
<path d="M1702 408 c-15 -15 -16 -38 -1 -38 6 0 9 7 5 15 -3 8 2 19 12 24 9 6
12 11 7 11 -6 0 -16 -5 -23 -12z"/>
<path d="M1590 400 c0 -5 5 -10 11 -10 5 0 7 5 4 10 -3 6 -8 10 -11 10 -2 0
-4 -4 -4 -10z"/>
<path d="M336 392 c-12 -11 7 -22 37 -22 25 0 29 -3 17 -11 -12 -8 -11 -9 5
-5 11 2 35 8 54 11 24 5 30 10 20 16 -8 5 -21 9 -29 9 -13 0 -13 -1 0 -10 23
-15 -16 -12 -62 4 -21 7 -40 11 -42 8z"/>
<path d="M1095 379 c-11 -4 -14 -8 -7 -8 17 -1 15 -21 -3 -21 -7 0 -18 -6 -22
-14 -4 -7 -25 -19 -46 -26 -21 -6 -41 -19 -44 -27 -4 -10 -8 -11 -13 -3 -5 8
-9 4 -13 -9 -4 -18 -2 -20 21 -14 21 5 24 3 19 -11 -4 -9 -2 -17 3 -17 15 -2
22 -5 53 -17 16 -7 36 -12 45 -12 18 0 54 19 37 20 -5 0 -3 5 5 10 13 9 13 10
0 10 -8 0 -22 -4 -30 -9 -8 -6 -18 -7 -22 -5 -12 8 42 54 63 54 11 0 19 5 19
10 0 6 9 10 20 10 11 0 20 -4 20 -10 0 -5 5 -10 10 -10 14 0 12 37 -2 47 -7 4
-26 8 -43 8 -25 0 -30 4 -28 22 3 25 -14 34 -42 22z m20 -39 c-3 -5 -16 -10
-28 -9 -20 1 -20 2 3 9 14 4 26 8 28 9 2 1 0 -3 -3 -9z m95 -30 c0 -5 -7 -7
-15 -4 -8 4 -15 8 -15 10 0 2 7 4 15 4 8 0 15 -4 15 -10z"/>
<path d="M1585 320 c-7 -12 2 -12 30 0 19 8 19 9 -2 9 -12 1 -25 -3 -28 -9z"/>
<path d="M225 300 c-4 -6 3 -10 14 -10 25 0 27 6 6 13 -8 4 -17 2 -20 -3z"/>
<path d="M830 300 c-8 -5 -11 -12 -8 -16 4 -3 14 1 23 10 18 17 9 21 -15 6z"/>
<path d="M920 290 c0 -5 5 -10 11 -10 5 0 7 5 4 10 -3 6 -8 10 -11 10 -2 0 -4
-4 -4 -10z"/>
<path d="M273 263 c9 -2 25 -2 35 0 9 3 1 5 -18 5 -19 0 -27 -2 -17 -5z"/>
<path d="M6218 263 c7 -3 16 -2 19 1 4 3 -2 6 -13 5 -11 0 -14 -3 -6 -6z"/>
<path d="M6288 253 c6 -2 18 -2 25 0 6 3 1 5 -13 5 -14 0 -19 -2 -12 -5z"/>
<path d="M927 239 c7 -7 15 -10 18 -7 3 3 -2 9 -12 12 -14 6 -15 5 -6 -5z"/>
<path d="M6348 243 c6 -2 18 -2 25 0 6 3 1 5 -13 5 -14 0 -19 -2 -12 -5z"/>
<path d="M1239 200 c-1 -25 -3 -37 -6 -28 -4 15 -8 16 -25 7 -12 -6 -18 -7
-14 -1 3 5 0 12 -8 15 -9 4 -12 0 -9 -12 5 -20 -49 -51 -90 -53 -12 -1 -28 -6
-36 -12 -10 -8 -15 -8 -18 2 -3 6 -18 12 -35 12 -25 0 -29 3 -25 20 3 11 1 20
-4 20 -5 0 -9 -5 -9 -11 0 -5 -4 -8 -8 -5 -4 3 -13 -9 -20 -26 -11 -29 -10
-30 8 -13 17 16 18 15 15 -19 -2 -21 1 -34 6 -31 5 4 9 -4 9 -16 0 -17 3 -20
11 -12 8 8 8 17 0 31 -8 15 -7 23 4 32 9 7 19 10 22 6 4 -4 1 -11 -7 -16 -13
-8 -12 -10 3 -10 10 0 17 -8 17 -20 0 -20 0 -20 19 -1 17 17 26 18 53 10 18
-5 34 -9 34 -9 1 0 0 -10 -3 -22 -4 -19 -3 -20 6 -8 9 12 13 13 20 2 14 -23
160 -28 220 -8 27 9 57 16 65 16 8 0 18 5 22 11 5 8 -1 10 -20 7 -31 -6 -46
10 -22 24 9 5 14 13 11 19 -4 5 3 9 13 9 24 0 36 38 19 58 -9 12 -31 13 -111
8 l-98 -6 4 24 c3 14 1 31 -3 38 -6 8 -9 -4 -10 -32z"/>
<path d="M250 200 c8 -5 20 -10 25 -10 6 0 3 5 -5 10 -8 5 -19 10 -25 10 -5 0
-3 -5 5 -10z"/>
<path d="M1688 203 c6 -2 18 -2 25 0 6 3 1 5 -13 5 -14 0 -19 -2 -12 -5z"/>
<path d="M935 190 c-3 -5 1 -10 10 -10 9 0 13 5 10 10 -3 6 -8 10 -10 10 -2 0
-7 -4 -10 -10z"/>
<path d="M3697 183 c-4 -3 -7 -16 -7 -29 0 -26 -60 -59 -90 -49 -11 4 -20 2
-20 -4 0 -6 8 -11 18 -11 13 -1 11 -4 -8 -15 l-25 -14 24 -1 c31 0 96 37 110
64 6 11 18 31 27 44 16 21 15 22 -3 22 -11 0 -23 -3 -26 -7z"/>
<path d="M1000 163 c-13 -15 -13 -16 2 -11 9 4 19 4 22 1 3 -4 17 -7 30 -9 17
-2 26 3 29 17 6 21 -9 27 -16 7 -4 -10 -7 -10 -18 0 -17 16 -31 15 -49 -5z"/>
<path d="M1117 164 c3 -7 9 -14 14 -14 14 0 10 17 -5 23 -10 4 -13 1 -9 -9z"/>
<path d="M57 131 c-17 -6 -17 -8 1 -24 18 -17 20 -17 26 -1 9 22 -4 34 -27 25z"/>
<path d="M230 130 c-18 -12 -2 -12 25 0 13 6 15 9 5 9 -8 0 -22 -4 -30 -9z"/>
<path d="M20 100 c0 -5 5 -10 10 -10 6 0 10 5 10 10 0 6 -4 10 -10 10 -5 0
-10 -4 -10 -10z"/>
<path d="M1520 100 c0 -5 5 -10 11 -10 5 0 7 5 4 10 -3 6 -8 10 -11 10 -2 0
-4 -4 -4 -10z"/>
<path d="M508 93 c7 -3 16 -2 19 1 4 3 -2 6 -13 5 -11 0 -14 -3 -6 -6z"/>
<path d="M1868 63 c7 -3 16 -2 19 1 4 3 -2 6 -13 5 -11 0 -14 -3 -6 -6z"/>
<path d="M516 45 c-19 -14 -18 -15 13 -15 29 0 32 2 21 15 -7 8 -13 15 -14 15
0 0 -10 -7 -20 -15z"/>
<path d="M200 20 c0 -13 27 -13 35 0 3 6 -3 10 -14 10 -12 0 -21 -4 -21 -10z"/>
<path d="M1025 19 c-4 -6 -5 -12 -2 -15 2 -3 7 2 10 11 7 17 1 20 -8 4z"/>
<path d="M160 10 c0 -5 5 -10 10 -10 6 0 10 5 10 10 0 6 -4 10 -10 10 -5 0
-10 -4 -10 -10z"/>
</g>
</svg>
